<mxfile host="app.diagrams.net" modified="2022-07-19T09:28:59.580Z" agent="5.0 (Macintosh; Intel Mac OS X 10_15_7) AppleWebKit/605.1.15 (KHTML, like Gecko) Version/15.5 Safari/605.1.15" etag="ECJeflarnJXJwH5vX36-" version="20.1.1" type="github">
  <diagram id="34hYAtvxiY7bitqC4Eoc" name="第 1 页">
    <mxGraphModel dx="1602" dy="862" grid="1" gridSize="10" guides="1" tooltips="1" connect="1" arrows="1" fold="1" page="1" pageScale="1" pageWidth="1169" pageHeight="827" math="0" shadow="0">
      <root>
        <mxCell id="0" />
        <mxCell id="1" parent="0" />
        <mxCell id="xqDeTB8OZsrvRhNrIGSB-8" style="edgeStyle=orthogonalEdgeStyle;shape=connector;rounded=1;orthogonalLoop=1;jettySize=auto;html=1;exitX=0.5;exitY=1;exitDx=0;exitDy=0;entryX=0.5;entryY=0;entryDx=0;entryDy=0;labelBackgroundColor=default;fontFamily=Helvetica;fontSize=11;fontColor=default;endArrow=none;strokeColor=#FF8000;strokeWidth=3;" edge="1" parent="1" source="xqDeTB8OZsrvRhNrIGSB-1" target="xqDeTB8OZsrvRhNrIGSB-2">
          <mxGeometry relative="1" as="geometry" />
        </mxCell>
        <mxCell id="xqDeTB8OZsrvRhNrIGSB-1" value="" style="shape=image;verticalLabelPosition=bottom;labelBackgroundColor=default;verticalAlign=top;aspect=fixed;imageAspect=0;image=data:image/png,iVBORw0KGgoAAAANSUhEUgAAAKAAAACSCAYAAADCfcGLAAAAAXNSR0IArs4c6QAAAHhlWElmTU0AKgAAAAgABAEaAAUAAAABAAAAPgEbAAUAAAABAAAARgEoAAMAAAABAAIAAIdpAAQAAAABAAAATgAAAAAAAACQAAAAAQAAAJAAAAABAAOgAQADAAAAAQABAACgAgAEAAAAAQAAAKCgAwAEAAAAAQAAAJIAAAAAroBKzgAAAAlwSFlzAAAWJQAAFiUBSVIk8AAAQABJREFUeAHtfQe8XUW1/ux9zrklhdB7j4YO0oIoArHh04f0FECfqA95+kRQBElAr4SoiH8L/uSJIEFKKoiICkoLvYoIhC5gaEkQQgjJLafs//rWzJo9M3vvc29u7k3BzL3nzMxa3yqzZvbsNnufSP0bp45Ztw1T9co6La2VYbVGPDRp1DcsR9E2DaW2VCraPE6ijZOosVGkonWJtm6s1FAVJUOIV1FRFEaurpJkqUqid6I4eTuJ1KI4Uf9KVLwwitWrJPNyLanPi5N4YbmcLK12V9+ptDbePuOwA5aEiv6d6pkovpsbf86MB/aNo8ZBddU4kAbKTlEUDaHB1U6DpZ0C0RaXStT8hP44ky9FGBpbSc6YA5CSMxgRUNLLZP5CmT74Q2o06ih14UN2OskafeKnS7G6i3y7/fTD9r2bgf8mXzoq77LGdkx7aMO4XKOZrLGDqkcHJ1F0UGvbkFEYC0m9php1GoI0ELzkDBqnaCEygEDI4zMwYGSCW8CP41jFpbIqlWlipXL3siUvkJXbG0kyJyqXnmgk3fMmHfb+BdaZd1EhE6M1tW3nTr99q5oqf4FGx3E0V21MDWunmaiC9mD2og71moax4FMctjNQnKIDgKyWLuKHozRjKxAM+RiIoCVJo0ZZZ5LEb6i4MbOWqIvPPmKff3jOrMGVsN1rTFMmXnHHZuVSZR8aXB+P4uiw1vb2rRq1mqrVqug13Q7q5GwDU4qMgZQSNN8ABBdwuSoWCjEBw7MV8ES/i5HdOXLMkKVyWXV3di6g48zraCL/cykpP3DGUXu8LLJrWu62dY3wvWPanZ+oqaiDOn5PGmYVagB1jW5GQX/qdlmU20y/+ZD3KQ7WUe4UHcAKzooFSkN/ZEAawzhgpXAkc6MkmnzGkXv/1nNoDaiE7VstXZ54+R2HxHH5iCRKjm5ta9+gVu1WSYPOS3MSBmNBX2q0YfoND2qm6lONMZEnJibafFt6k8jnkZ6AkbET8GHZxQSDkI8bK5VW1U0Hj2T5mrikrlk2/O0bO8aMwe57tU5uu1YrR2fNSkqP9tzzZXJqMnX1COtc0DlB1cJQGKjBWBgkY7w3H9iXIiWBcAYW8HW78K1TOBiFTjFbRgN9SldP2486xu7Sk9JXr1KmvavavW9dOWffuFE6KY7io0stLevUqz18EpHTD9mZpKA1IPOcVMDnNhsDPsSvxX41GyrSkeunQbIP8KVIT8DIwAI+1LoYfzBGqlypqFq1pzNK1G/pWuRFpx++953GldUmc/1fZU4dM2tW6T2dm42kIP2mXG55fx0nEgUppw+8Hs3lO7pW1qwIk0W+DPRADDvRH4i68TiBadSqj9fq6rj3NvaaO3ZsFFyHcoK0Eouh7yvRtDY18cp7PpLUq5PoQtgYBA7HdnAqL4ihc7kdHBCDqqei18EINCnwgxTUqOpTHBOOcafoACCrpYv44SjO2AoEQ74bR1zaQaIY39OIo/MmHrbX7z1nVkEl9HdluRCddfnt29Yb8W/KbS0fqvXkH6LAOTeARc4FfcCDxsVm+C4TNvDXLBLEzLJ9CuR9imPEUe4UHYD2AYQifsjI2MoRDDFuLMstLarW3f1IVErGd/7tj892dHTkn9V5Xg58JfRx4C0EGn8w66YRi7oqF9Nlg09HcalVzmatIzmBhArwGVPAFzO5bIfoFEXEy3sdjPAjo8R6z7qE7VONGWGyHkMLMhnuDtRHBIyMnYAP4RCDNmBGxIXupJH8ubvW+GLH2NHzfUODXwv9GjSLX73gT61Dhw+boOJoKuJDDXdsaTc8Z3KCCAFgsgPAUWWKueIBMah6SnodiEbY8znoZkB8vmNCjDfByECElMAdDRlixlaOkIuROCIv0zFitd59SmnxG5d887OHLPXsDGLF9WfQzHxjKp3ZxuoKuuO5g74t5nRMpgO0S55jOYGEs8BIEJs5nyseEIOqp65/gxEq0lZAf1rz1OuKcaDIj14HI5vzLXi1HMUuH3HEjNioN14kVV8488i9b9WODe6368OAWzp11j3tpSU9/1tuKf8QCwDykuuAHyPNcfn508DADUTfftbbXgciRNCRnmhQo6pPccCOA07RAUBWSxfxGewwM7YcHrAhX8+GLTQb1qbE0dLzBnu5WGjfa+yKVL565W1btlejW5SKR8nu1rbdFnwLrjM+JOXYkg+wisBfGbNio5GoOh9FJKpUol2YOcO0jqBAPlp/mRHUqOpTHGmnfU7RAUBWSxfxtcnUQloyanIEBWOOD+dVyi2HnHbo7k95hgewIvYGUKVSp1065wTqkEtpORFfRHaVe232KilKnMqyheN0XBbEigTZ22DMFXeITpH11mngbbruEHXQrluqnbbYgGnPvLpIPfTcAvXCwsW8llBsa0dkmHDNfHkInth9ioN1HHCKDqAPAzEQzNgK+FDOGKKXKy2q0dP9tTOO3OcCz+gAVTK+rJDeJIlOm3rbDTTrHUKnGTlbt2/Oa7dXSb0QiSxbOCtvMGLw7TNyE3X4+0fSuVRqH97i2PbVN5eqy+c8obp6aH1AwLctIrovGdRM1acaaUenU7SqUXC152ICYsZOwIdOtDWJ6vd19ww9aKBv62Xsw2B/0hmX37U1LRKYTYsGRsulFdZDFrJGfIrXZq+SeiISnEtFDFDuk7xaqsTgCgeHQYYuYOBtMLxdfWzPrdXu22zk6QsrmPX/+OAL6sF/zOfBEOpivCFmvXQoVETNofimREcBoNeBCG2Bc56qkIdLNo3GXFrPfczZR+79pO9M/2uezf6qOWPq7btVq7V7olI0zNXhBoHpZC1r0Kd47fYqqWZXwoekHFvyAakSKgHT22DEgNptmw3V0R8cpSq0br6vacFbS9Wlt8yl2ZC6zDqTI22YWYhPaXofWnT4ItaY2w+FvgQMT5XLS5JOWr390W8dvuc91sAKFDw7/dFz6q9uOSKOo2kU5TbaD2kVgVY3AGLDbZPQwuHJavCVD/YGsw9JHbAlH5CaZPXkIXx3MDU6w8Cs96l9t1M7b6WP9TyhPlSqtYb68yP/VPc+86oqkW5e42wdylFg7KcQlBBTQ6EMJVPzFUDWtMFphoeRfnCgHt9WMn5YDhmnjZCClTSiz086au/LHE6/irlt6aumb1x02+FJ3Lia8Hiah1PujOJYkSAIHtF02KLFsqVgg2oLwtG5qyML0VyLyQJYCfji//u224hnPd9K/2o4Npx66+Oqu6ovRSEGBS6kBghg/bXUlAL5tGYBuuAod4oeSLQX8RnsMENbFCc6yC99/swj9rzMU7yclVBvn8VP/eVfToorLf/nPtwTKpPO9JQ6IAmC5RPPYRtyDkVIToCsDiqAjQ/PHYK1AE2wZEcHLq1suE67OnT09mqHLda3EgNR6KLBd8uj89TdT71Kl2ysdfLTRCElZc2Rj1l2SkET0lpWXEa709QApPUX8wnuMMUWzpCr1e6Jk44a/f1AYZ+roqvPAgB+/Ve3fjpRjeuskOMcaKHSzEAMAJnwEj+AZLR6Jr2K9crT4UNS7bZEgF22Wl8de9BOdhZMNQ1c6cWFb6ur7njSzoaiGTHwfRSOkxPA+svkoGaqPtWXR63Ijqs9FxMQYQd9S88Zfv7sI0dPdSz1uVjoa5GGr/3yps/G5dJv6LnGIojXwtDAYAxGOOLFxqukboovLrtW12e4Yw8YpbbfdN0UPIilTrpMc/Pf56l7n6bZMOfERjq2qQvUCGlPiksp0saUkqK4ZACCC7jYHCypCCNBx33knmrPKWcfPfpnVqiPhdRKHwROnXrTbqqqHqJj3RYxXqgg8NrFZQah2HZAbgCYTTyHbSRyKEIK7OeY4Cbs855N1VEfGCXslZrPefwldRMNxJKzS3YdQAwKmqFhhilNTmV9SoF6X4cvYlW5/VDoCxi4VJioD008avkerO/zdYVTLr5pp6QnuY8stbB3OOOiDy7A4lgLHy8ZvpwZC4ZzkQPGTQ4IWt0/GLAqrYwjYGgWQ8dzVsDitZ+QqhNw241HrLLBB5cO2mVLtf4wffEgDAX4aD8uA+k7SqAEyTSW+4DKaJdOflwQChsOgUguOghgisLh3O0D4SP3EjPo3Fglc7732/v393i9VPo0AE+86PohtGbsGjrtGYLGZpLxTJpdxBe6i7PBC/W6IBJ0w4tI6zaLRuSBACgGlxZcfN6M6vMHu4YTE4qrNROGwDKogPbLQCzEEUMmhFQ2jQuXEBPWlyJsyShGlmcDPuAPKcNnIVWu16MZP5j1UPoQmVWeXyjnk31qW6Pld1GptBPOeLV56ry86d94xRhnvraze+A1vTLDGkLJHdyi3xoEn7YxSbxroKql8F4AXEuhstZvzVJBTOL20nMLFqtf3/SY2n/HzdW6Q1utpHgFuR5z6UTsSo6OwGUVdxclPMyuNV79YzU5viQKx4CvvPGOwgnJW8u6jZdaOryBKf6KbncAiO0Qg9Fho0BMEwVRQeyUIrLiqTuy0H4JmOCgRLQzHxBjAZhyqbR1rdHAUq69ge0tWbtFwK9eeOMppUrLTxr0TpUw2UFCjEJFxvPe+KI7xLk2GBMApPEiL474ML8GrAQUMa7SRWcJJnibrz9UDWnlt3qwOsGCJy1ljVatLWgIUG67iY2BjEHHfUp8unhv7yf7+o2KgBhUrR1d0FFoiiFmjpdWj8hmMb4/grOCwna0l+glT42kPpkuz3w7xIX1QnsAnnrJjevXqhGWaZveyGuEVikBR61QqfG+kM/CKTctZW1oim8s451R4Ovxa4FJtc97NlNH0xlxFmUt9rvwhwefV3c/SXdFmpwVFHWw3WLQ5F6cQxyaYoiZVZFSuERfKSVoslFeZEPbxwamRp551L7PB9JetckxYBLRCwjujaJYDz6IYWrHx1OhK3IsxzBAczA8zRj5XD4LpxyU0hrMuzVjwAHBM/ljruH5Uo6AqCASVOMztLVcHHiD72+G3XydLl/ltiPwJWPDabv4msGIDkQB7SkEgI9IuQk1TeESffGJiwuRsnGgyA/pg1qj/sAFf3q2VcTy8sIB+L+/+PPJ1BOjGrjel/qmdcB5+RBFuy2sLM/lM8o2QAchVK+jR1TgKAmfc7FrcgaEIJaRMECPVsVmiwQMHTYGK4l92EjPbvMtMtbxm30KiG419JlbTwA5cQn5os/tR42BP/LRccNAzB2MxgGcSIW+6I0s2mDxkjfPzLVtiLkD8NQf39NOc/h3xSHrji04KsUJhyRF2zjC5IkyTjynCjCZJHzklEI9YsOTC0DaukEQj1XmCoSnAB5ohSu8SzPtEGXsKtF0hwk1m7PPALvJ0ZXLN1i0XwaiI+Jq4qBwLD2qH0i2QfzQDRZxFDtFOthNJnVc/9CGnlqnkjsAq21vz45LsXMqrR1BQ7gkfrmekFUZDC5ZbAmPA0HEDIZbZ3QYfhEGIwg87+PYF5suABLyx3wSNiYZJjLLuovfyiCY/uaLlnbhuEgbdpRIO/QgIS/hWEGyPgskIARVT4u0v+lgJAXSV2LCjbTolxkxxZApYUKHmRVpwUK51Fn7s+eIU8kcZ371ghv3qMfJI8DgTK150nyLsgUjlXuwq3k4aUFDkYdink3DR0MzOOJxo5Hn8UEzPAbIV6DIekB0LEjYYcv11fpD2/hitYiEuVXBBVsLYewffMell6deftPzx0rl+Ugy4GuWRWb0g49+z6hwCCxdrIJ94itcvWAyxp0egbkm4rQULT7orHGj7wh1ZK4D1mN1soDQGdKBTnuETbke/9hxsXFdTT3BlgC0EXYdlK2c8xy+NeLogC5XB0ceQNMDYh4kwckgB80mARoQvOQWEB3XB599ZZEa1t5C6wDXZ7rArbwUSF6rsAVVoZXD5TKtHiYMeJ00o/79hdf5Uo9uZqotjZuhmTiIelDRNMQZuqQvQJGk+TYEQhZBCOk+yDfBeMQIbHpZgHRVqseU8vvJKCXv4AfrSEPh6aDLMt8kQmYAol020cPjGyWVysK8a34C4hnLkxKO5HY+0YQ8LAUljwwBN8hFGIlSb/zUIynp3LVhOY6ytkpZnXH0fmo4DcKBSG/Txeazr7pbtbek23sw1shMEJMsgF0RN3Pb4DibKx4Qg6ojrb1pxgfC/HtyTDQUyIu/La3tqtqo7Rwu5/eOAetx4yI8z8FbhGxagXrwMDMWsAmNrUlvUSyKzUI2FNFFwrLVCUly13YoJhgxnqeaMXDOcTDEuTZSnVQyBnXgJHQW0e8CZlPxwZhg9xwX2biHCdogxi3GFxa2zXPFA2IzFejBpseKaBEpyPajtFB3AQ0VbjutG1RJd89U66Ap2AF44k9u3KyRxIe4C0ylo5CHCTQ9EOFEyEUdTZA/7Qx74mKlAcgDFWLbPWnxMDBqPoxli7qxVpWDAQ3y8uE67JoP6pw8I0IcgBy+mCQ+cE5f4mbqnY6H5nsAUcHtQGz0IDEYy00Lotsxnxokosv3MNZX+CJ2tGiqXUDQYz5MYs+phFzL1OluUyOK9pg84+6RTDRfdgCqcu0A2ubpR1jyEwzkJd0AGYx5CNC0Q+KWqfpgrwEhSzcu1eTzuaYd0cUcto204VlfpG7sWwUDNwHq3RAbxJefXD/QhDSlHFuSNvpADiddrbWDINXhl0TcowbEoOpDyRL/eX56EB5tMiFojvUeh1dt9ST+mCthByAdgJ6kjaed7QJRtqMcwJwEPmbF4l20dsY0g8dEZjCSDmsnsGHpwBBPPh4MvokOg8njs/EcPbCBB5KqBYsQPF19rLz0+hI+tmXXeJ+kfXTFpS1g+xDhBG1mZb4eQcqsiLbkpRxRjpnEBDK5GKMMnnizb4ER21/MR7/SZhKrr7pw3s47Zs1tefOthd09XctcHpd7P9htPlVAvreDWVcDGtZGB+s4AWip4Ka2Uove6VI99GpPFyeOin95PMGIA4WYHAfxBNt2m46goNEZaA7fJxVq5ltvWPVSynl1h9VhC9ZjHXunmoVom9ayA0AM16H4YUEFBsvSzqpaRpeBwofpHfUSIpdEZxBWu/bHr3pYnEIFcI8vCtqHDlO1ziVbnjX2A6+Axqdlr7z8/P+0trdlBYjibkV5HdEXPrYmJMhnndRbNvg99Bjjh/fYVn1sr+3UsLaKaimX2P486sALfv8gX8qAAjcOYh8mXP9cDCmBep4xxYE8PoOMg3Qqpv5Jdo+k1dJbbDBMyzKg71+Pvvi6upkey2yhyzLGuhHW1iUu8M/GxRZ8CWDFZw1x2gQOdJB2DD6s8j509EgdPwzArqq67dGX1J1PvqJa6BEAN07SGuh3E9twiUQIqi6crGCG06TCwUiAnq4u+i2X5FRCngY0D0D6oZfP0susuRFpJLQy97toNhCMDAbU8xupnQwHIm7QbzxiqBp74E5q5639Nw8Au9VG66iN1h2qXn2DftePGoFZEdGWDrH2NVlXSS7kM8NESdYiZjDCJ/D2m62r3k9rBfubtia/5774L/WvJZ2Bv9LbqXVjlnyWXkx5Yt80O+1oC9EyGIKI10fft41qpb0HEqKAvcmn9xupRtKMfj2tyHlraTevyMnrI2uLVJKqNFkHNRFVj58i7WCUHnBx/P7vKDqc4HoAnvKTa9ftjNQWdvAYQ2zGlTQGLM7Uixrh4kIMeNIeLN78z33fqz6xz/a5D+jADO7I4FFGyMCl7Iykm/rmO532TQRsI/DRjac4wF3ntNNiyJg9QDZ6+pPZu0lkiG1BCRnRdixFE+lb4oKC4xY3HG3qoeNTSeIrZLCHxwNOeEuXG3vBIt+F3vAwih43/dNf9bIw4EVH2EfAW1+obH1xiHrOBVInizF1zIpIEHEHI9lcr2PqbZt2nDBmfnlpo2VjesZ4RFZYS7KDIZPV6i9pbF4DBAZMyMesh5ntmAN2UqO27P3NA2jKiCEt6uxjD6CtO72gKzYkP/+a+9W81xdzYDddb5iq8O7PBIAag0DA9oJFS3l3xXISVGon7KDNOnSidUVydIPWJp2AKlOMIYR33WGtbFdbAkMnvOhoKd1NwcNzu2+7kfr06PfwK0LEPwwirC/srtbU7Y+/rOY8Ns9YEw1+jngctt971Hs3W48G4gvq9bc7WZ77iKBhP4m0EyIhpSPUjI9cjEFLDGhZO1GSEaVKK3Z188uNUm3TUlxpw7IrabY73rihRjPzXWbqirfV5TVCBipEqrRc/bD370Cz3sjCWc9RzUW82qKN1urRku+Q5dWx23v2lTfUZz6ymzpg5y317tpDoJKox2jX+JtbHuWRgLPeMIGCgbqiCY991ujY1gbXKMQvZJaIiBlr4rj96S5JfrswaC+9+TH19Ctvqvdtt7FahzbCvIQTjoN33Ur95W8v8lWIPIxL23nrDdR7N19PXXf/c+qBZ+dzP6CvpZ/Q1/n9mGqxQ0FGnmG5M6PFWB7tWeh3cWuqjkcRH6M9W7wn9wLVZKuCPu2AkbLCADnqQ+2CkwEb8HEmi13A+IN2UVvTE2mDlfA2q5H0jC8CSO+OzEmR2oTe8YfO3ZaOi449eBdaiJquuxUB2X3qV2pIdISbl6fGcMaJ2earh+6Vu6jhFTqevezmx9XmdIIzvD1r29W+/SYjeAC6tNwyme+LlyIL//DSJbx86foH/6EWLu60EwL0yGAsOnt2x53X1TyAdCwE4/L1bBjhmZFryhSd3VSJzYlflOtdEesxVF+BIRLAhtwFWHYaDmzxxx28qxrzvm0Nd/ky15emkqYpuBbZLDGMlO5Eu3+8jqNZOmfaXbSahZZp4cU8lGybQyFm4Fg1UTuS3hM/sQcvaghhqI8Y0sqfvsyyekNo3p48G32lYfUPPpgN738GT2D4CWfWSGhe3qwInoGgSJgsweNTpRHVdwO2TGeDI1nabZ/z9BmGGPShP9kBSKFgkhUjpewcLDmDEQHeYYsN1diDduZjPpFb3hxb69Jua61QXB9x2SOOQhymit61aXEMKDSLFrkxgeWojRxnothwMEPbltlDa8j/RpiqtFfoU+qjs/SScdoF9+/QAceG2HD+SLPhgreW0auH/dMwDgH6mRzmNjv97LZBhoDkdnQaPMYS/f7xeyBTpnBt7fYEh1Uay1akM/WsyIYMP7Rvgw4niYld4YG7bquO/8iurn/9KrMr/ZJsIkR+SlOboPIxIkvtFB3WRyYItVgzz9L5xwgZod61aRHg+orNGCHCDlusp0ZtvrfCA1T30ouUbHI6W2zwK+0IkDcrYvAhIbeiLlGprcGPY3ohFAqS0CXyxy0Ra6aiebqReiRrIyIvOQbjx/fafkAGn+gcnNxEqolytAW7IRsKF4ugmo/we9eoFWDAygvcXZUrVIYvK5gwoHAh+2Q6fsXdKNbotFPUS3sRG45PgW1XVCDUdl53ENMV/3UkgKJYcjsQQRBrzEwrUhIjIotR/z56n/JAJQ4ERnxvqQ8Qq0Kct4T8gqiUGb5QzAmCyORr1FTsKPuCA7pg+GtFzjcGAvY8A5E2XW+oOmCnzfneuNdmp52uHWCaDUTBQlwS7+RFOQc4R7kMRA6CBUNFWpGSzIo4DLn+vmfFzorn8Mvu44rVAdbbCYhI606VWt9yxMh+SETa7UnnxNDj96eSa8hX1Ifw+AK91HB5Cm//188xawf0WDAbjrQTuZNQ68usCJE4kE0DKsodxShqB4xBzy4qmiClJ+a9rk6+8Eb12AsL+zwoAnNOdTnDu5xwx1CmyA/YENVrLuoUI/vJ8PvgAMc4Yy5DCPsoA3AIjA0ddfh9LeJRgkvotSWL6LYdku+D7mHp5xwAk1iOvprNinQSougXoel1aybJAaNtA1m2oRQmYTEQOVGmzwdFgZXkg1O8gOeC6x7g639f+tTedCG16XPKRkk2w1mw+yKfLEJTrF9FgP7QEQDTA9w6EwcbF2brdutvl9PcYF+RPNCbqzJcvLMm+xqVPoka0CPPL+Trgm939vAKGulRhED81SEI2uyOFejyxoveYJnMLK2pTIF9iy7FbCyKTZxdWRlq+kXegWJUpdPzzqA1PFLP0JX80y6+WX3xE3uqfUZt1nRpEGTChLZIIEKeW2ccLpdIQ1xmUIa+vuhcp62VV5ZIjEQNFjSENPAwWNrprk1fEo4D+5L64qfo6UPTBerlS2jAXXfvc/wTE2108uFfhNFQ+IE2i410jGkPZbriuGRBrARIYnHTKUrJa3R/bmMZRBh5rgFIiBEbBJK2gRcmlDrdiSesbKLrihqWqItvfFjd9Nd11cmHj1bDC24rWTm3IMa5UY5uF0PlNrqlBWjR1XsXjhn1r8+9RitetlAj6LUZRekbR+3nta0I59Lz1v+5/Hn0q0qLaJUM7lf3ljh20pm9gdH44vAUSuOSyw20SKGzu65aeRmchqYXmaBXK5auAAJuiTnpY6bjy3Dkco0mCTp5HXW6EB2/SCN9D9s+KrAB0mahxqKxz3rECavcZRJCBmM4K0LniwsXqW9ecrP6r4/trvbbYQte7cJKm3xVsDiVBozYbQLl+6t/pfub69CzvbiH7MrAPo5JnqH7xdD28utvq1N/dROvtpGNDzlmsb1pXd2XPrlXn2ezPJ/OuPQ2fiaYeWRcYoqfcMCSqcXLutSbS7oK7/Hi9iUGK5LIciXnC3y0FQsY+pqw2PcPD/xDPfz8Al7koLsxtSTjgumoaICn3sbXFFKIJsh0xVpJB183jNQLUIJd8JN0e/gw7bqjl4BWMWnkxllC6oclQbGIpx5wJ1uymRWhrUG7yal/eUTd8rcX1NeP3F8NaWu+y4LuRbTc6oX5b6n3FrzB/i0K5t1zX+JrVzc89BytDPmnbqw4IDn5imNTJATDfVzSQsjH3mYxwTbNyXEnHBYq19eWdtfUD2bfaxatWrYpIE76fYLwk9cVhhCn/hr9HESmHx1+WLz7iVfUnx56nt9zqJdxEQL+pj2vCfRNbuiEfrYdDXZacSBQw0mzNUd/g4MNvME/gFhWtejvqkIE2iM7uoy4ycgoCxNAFItDrow40OdZkZS9uOAt9bVf3qCO//Du6qDdt/HtBjW8Y2/K9DvNYkvtCX8bp7CiGrOKqfJD4by1BXrCah5Gzm5D7HLXETsEy4kddDDNKMMsV/TIAUNMkK+99xn1CM1UQ1poqb0E2+io0stD//HaYtr4mm/IgGMp2rV0iWzuvH/pWLpBJL2YJySG6YB2KMY2u2XaZtywmXXPxTKXCHRI1qipv6Napr3a03Gdeo7ew+Y2yvUp1erPiqJP+DIYU+O9zIrwhRsbqatufUz95eF/qNOP+QAdj2UfD8DQh148L5KX4K+sAnb5bkfnDTRgizC2Ha7C5SzbkwwKrtVHjU67M7UPvvjo8mW04aQAjwlI8jCQBYPsYE9QlPCIwF8efoFnVhzrsVMk6HjHb0iwvpIi3a8ehdXb8WIK0v9GQGOMI4CIv8jpDuSDYJVb4trr9LjKEnJcr48yWticsWkVG2WcGaPumaA45OLF7aJZEbrQeHTJQtoyJ069TR3zoZ3UB3beinel4OM47ZHn5+tLAmiItARMk7S/ZsDnAQhXNNBEB3LBwMRTL72hbqZDhA1yV8voha3SZlcH66E2PUev+Fi6rEcvcXJ9JiE3bq6s2Be+K8Y4MUhttLF1FGDlzE2PvKh2o7WD8mYHXFB+jn5S9iYafFgrWaGBJwNd6zQKjDHpD1HLJg1PZ2IZiNRD4Dj0uBsBctAPIkULJpY1VJmX3UQnXvRQpXvxS89R6Lf2t8usAjaX2kPVT2QwZAc+MN5i8piEgBawNlxnCD/NtbSLnlexSUuLjgIVjGZMM4DR6XWGoeEseqMRQ3hFSLZV1hkTY+1vSk1Ly+iBoPA90HlBkvakkmnJ9S8X57RR+JBZj9/Ar2dEDGg3uTVXv8W4ACJ6MTC8AMIoK4+aC/Aq6jVVL+3wwy8csIQhn/3htTNovd64hI4jJHkGQfQVMCyHJOKMd+0XqEj7IkcZb1Fs2mgKFRppkJmV4TvuFDmQQriEzsDq4o7jDyxcyxeI9Fq98/F56qrb5prHA4LI5vicOyCMFfAggtkkR9TvJzN1ZUIbEESP1RvwQ0NeC4yw6EiD4VNYJZHoSI+uZqg5559w4Bhgzb3g5P9KFTxDqhsGBqZh/NmExnCDLIWrAcljYnfiaMjFW5ui31EoTlstFixmtHZ841hLVAjXzVm0GcCA4TPufQ6lx0IHKm27ybrO8n4dV+05WWDHfEsSN4tx2ODhzBgpj2+DAAwC6I8DrQk8o8PVI/pgw0uoOiSvBYbHKjNCKYH51EmlcgsNuuRi4fAAvOL0I2+vdnXSM486iT2dizmdew0UPAHZAATCRAwOKHLDEyxySSjKxypzAK4XFsjyIiUIXOfTH7EjNpAzmhgcZEe/ixFcSFuhemYgiL/IKaXN0GaM8xw7w9YMYes28H3WHD6jetHhxtk178bIG4wBKGgBt8GY1G3KNIoW4HZ3qfNOOGiatIUHICrUkIus08KlXGwKyYRLV8WaMIEnAXxyEzHCgObhPZs5yryGe2BYTY1LKc+GIHsbiLntWE4ixl6DHk4qTtIigwihpgESu1AP0wkDsVDUYk0cCzFBkFyc6Le6pOAYC1rAjrg6QMCETLgrRRy5HYBxVJpNhqosJM4YpwEUZToXc6iBSbl8NMVWHRWGk+IloKwzqyK1KbpzlFlPGAPdMMMaOdd8Q8mxYdEkD3/gOPK+3MqDbF8SHgTHsRvu5PDdHLaRJ2lbw/FzmpGCjX8Su5QB17XvhbMi8Vmx6CBhRMpLDgZ08O1H5EzOcpbJNcKmfyIoKunmQ4NWQF+mkfrbXlSb17nuw1u3/ut1ujXHrwKwt3JJmvcefEAmRtJDC5hDsgemsMaEdJ+TQ9IYfBumXHZwSLzFCNBoLVwQwXLiizhvXdDSpiXcniKfgHyL3uX8/Rl3qV23pQW1AhRH3FwHJg2Gy6My2O/QDf476EcJ3WuUWiUsaQed0DoagsjaALgQgyEFtqmGzRsTyo7yEMNtI36ealYjbTc6QhxseCdMASBoAcUyWvTOEHW/cZEzz6fP/vC3ny+VW39d6wkuZDooLjqNEmUOhILh1giRhw8gokd7ldGQpyK1kqNf9FlNGXua4JKhBtfRRo/aQj/8HXSA6MzLXT0en5TipAZ3Hd7EKzoKknRkk6aQZOBznlFSkEeGWbHBZXzlJeNAkY6wI0Kca4PVG0C5Qr+RUu357o++MKbDNRuNmzJjr5mTxj8sxON/cM1rJLOp1L3csZYxZIAOhCleOHKim0NKTeYEMw/v2cwB+D6k6nVJS+Mbu93Tjt5fjaQHtgc64dni0399Cz8FVxQ72BReTjMcl7wWybhM+UbYi0vKTW04tEyxFx3uQAztSBtcnbRT6vzxFz5s3z85/tzpW804a8JLsaqrc11gVK9/BzOpfFyeJRJTjjd4GpeZIkcO07BMxRbr4lmXZyWtEE7swB8kiMpHUwJfQyZk3D/mM9GIQ7PxkCIZPopoQCucYWaVQWXbBF+CJDx9rBgwbdVtERF1EyxXAsS6DDtlEpzs4lN4rAgwx0nHJVTPugwfOOHbHDTzEbtRIzlHyjqPpiCnc4/oAxOmTLNPDw1fV00jz95iBwggSrWQ820Ylg+HnGTphgY3tatCCPBUhYpATarRNMiVCrHgyaeZMuuHBcOMVJAPQipQG3aUa5kHCZ24NI2LiSurlyb4SjioBeZJN/TriORiHOO5fNhyMFx17Bv9nTWVTBXy4R3X0k/TR59AnfY69IM0SfkUYV74lbHv0MXqz1ZaaEGAKHYczDgBAn00VDfGymmW7VrYQFPlz+LEDgCUpIo8k4joBc3a1nKCN24x1ioUJuXiA3L824+DGegi/NaGspptm3IaLbw+z4piRnKYC+IWemBtAAd4FpDqMPwiDNsymHJrG3b5p/3svz+6QFS2V7o/E8Ulfg9fjLfix5XKt8afN92+CO+Kbx19fU931y0iwDkCY4KT6yBAhmH5Bi96hI4cSQaBroFAnFBGwBbkFAjLgfNJoQpxK1c/RMUP7JKW0OKBwUh4tYfuZLjRrFHN+ZCVgVisRlpkWgJzrkkSlLi5ZGm3+BeKCZ8DbIznyTMOfPrQW3cf+X9f/PCFIvuZ8/88NGlEF8htX74Mg5cGJvXolyRBC1P1eznqkfomrZmgkxO5eGFUGMOosfG8g1Xjlc70Nx+oykGQyBqVRhPX+PDasYEDp6BqpWyBAMYkjuL5LDBPxmKIaQ+cjU8IOt5V+PPfP6C23GA4LZBtSTEwlAqwWU+/dSRbgHq8Dezlfy3hNX/sKNEQZWMaM0RGUAaBMEKM8OGH8LJqnLhQA3TPGo0waRrBcTHC4onoZ7SjWPhMd+VBCHTAL9qbfp2x5qunc9GF9DNwZFr3RjT+3Jm6RG8jq8fR7rMnjn1CBMZ/b/ZZlXLL5HqNZgVSZq9aC0DyIgeFj9x4bhvgyDhsK6GHka3axjkUaa9LSstofFrjUmCS78/uus3G/H7C9Ya120cDTGzsuwUDNdzhlYLXxMEGnuBzE/yI6OVMoGIpFN6Xs/CtpequuS/TMqk3zXO3aGLosatFl5tjqM2korkaJy4wh94PzZKCkGQ9MbxmfGDLlRa67db9y5+d9LH/EdnjOq7csl6uPEN1fhvUjLPGRfZCNDWsFNcaNxFzCxGYMfGYc4/93iw6WIw+iK1FFlfyyBYQcukxFJ3We06aYc4ZGCRj+SQjWwHUMduhcDgcGxLhHBLEdSKm1Sk+WQLMJ3yh+RtH7S8SKzV/z+brq/123FJNuuxWtdg+e5s6WDTQZOaAs1kMdq1pd+i3aoXNcuJC10a4D2DWdgaVg9i5LOGxiIlryIfFWk/34+7gY1qp9Ad6HWC7+zoSu6miYaVKefNjJ0/vANimevUE9KRrBFgcL8lpvMWiQHT5wEn5+BjNYCiLpDLAiUyaI2j6D3zRzzkTckmGk+Lht9VJhSbbeSo7iCW6MsPHc3km2Ff4iyAVpN4wOFbUx4tFOiSqsENG5OPaMz5I7HyW9i8cB3EZ81r8Xy523Lkz/pfeikoPv8k0prl2AKLaoGOVRhSfeQL9ZpwITzv7uGeTKDmY9k88CN2BCAwcCx0QWW6VCWBe2xhnGMLngBsZ0QOeJAmZ1F0bQoN4oEJYdqTSi9nVoy8sUM+8/EbKW4klPIPbccUdfNsvr82uK9z51CDGuQynLBiHZIuIxXKduNjOsCp0AT4EJKnCPsYB/Tor3fGoj//plz5ib258/rzrhsdJPLlB5xph8gYgmHRZpqXz7SX3n3jiRXZB3PSJY29P6j3nReWKNgKc+UAGSRyQweg5igiYDwcKeJZyvkAwH84IDyzLpSwrJwPRhkSwyE3KIQmL9WIG+sm196k/3I/DkpWXfn/v02rS1FvV/EVL7KKHvDbnecTxo4ZxbHIAzfjCk8GYI06kILLsGJM13NgWXa6OGIOvp/rrn5300ZkufWlP5xw6wKNrf9mUGYBmitxu8TYjfubCp02a8K1aT8+NvKIVThATn3AgQkacAz83mZEhOjIYh8E6gHeSsIUqIbMQo9/WqZBDYnY3PUN79Z1PqO/R03ZLaVYazIRjvcnT7lS/v/9ZfhRSRy9r0bY5aHeIlDiHdKk344MnA7HYTBBZCbwYoJxtoI7j+Hr1oQu+/PEvOmw1bvKsc2m1/V7ubxC6/MwAFCbdIvmfCedMO17qyOs1dRgtqbkfg1AaJzMe+OFg5EaiofSRwQKcTWg5eIafwZgGa5jGAe8qMxCzQUjAdK6xwAOlk9blkXgWwq749EtuUn+m54kHI/3unqfVRDrh+OfCt8gemoA/2jUa98QvsQ0ef4iB+LhtEIzk0heME6KTN+MLT44VYSqbtLfis3aMUAaLfic9T1TrLWNc2WO/P/Oj9AsMk4r8ArZwAOICtaq0XHHsObPwMmlOszvG9syvPnEA8f7hnoHZRiBYhAwHIoSBKRyIGoBv2zauuF9QTB+doWA+DkbzUoL2xtTz8I4KnDHiV82voDfnYzbEazMGIuEZ3LN/cxu9c+Up/v259Jc5oF177Pqd4ya7wZgipuNos85mi6SjCKPV65nRURkU9TCEPzph5mssKHUu/eCFXxnzjlCPnXzVe+naMq6qNE2FAxBSCU5KYvWnz029je7L6TSno6NWicv70ZXs5+VyiPCQy0DDYEOSwYgcyeWnjdA8O6gQJGDNx3B1ZogcLPB11FCwMJHTuQTM8PPwxBIyfh4Mjy6eRbPVjQ+u2Gw4c85c9d2rblevvfmO+RkE4wsbg/PisuupJos/yN3ESCLadrtMUwZPPjlsJgmf9eSAMCPKJ/RBw9EWnNw0FpTjyt4/PfWIt1w1jbhyo0a41GzZvRCd5RJFH/M1XirXqrte1XG8fSr60I7rhwwtL/2bikuj7DO/ORpkprQDsAAj/Bw2nGByIcZhcFGu+xllDtvoCSgBHiCQ8DztPqM2p98c2UOtN9xug0ZrcYafFLvkhofVCwsW8XtqxP9QwrsMFLikN1351pI5bjKDRYuYjlHpC4fkFZvxhSdmUKfB9zL9tOS+NPPNF0Wf65ja1lUeej8d9+1edNwnWFyIbjoDAoiTEmrgVtVyxZtOr+84dFm9HI+mmXAu7rfwFiWanVy2NMyI4awoMGCEr+cC4ZgcmyB9xAYwXhIhwIghNiGD5LBNGdum/tMACJoPE3QV74Z5+NnX6GLxLWrO3180nOYZZr1zrrydjvUW87tl2LboNv6IBvEBuXFM5wxgSeul1pNxM0WSbrRb2iw23FziwjiXYcrN+MLDrIgjt6SezKvH8d7u4IOa7nL7NeREr4PPmFS9zoACjOkSTFKr3tFaW3bIZR0neEumx0+Z9QfaIj7Fx40QoK0js0GLIocvGDQpTHaLCxmoy2aIYh6fMSlDdKUUXQplPa8dG0DjpY+YDcfTb51sTveKwzSfdrMXXv8gvflrMa+mBj9QwSKezRyA70NoRUu7OnJUpHaKmI7aotgIJOTjlmKjVr9rkzcfGNNBh2OCO7jjtvLG8cJZldaWI2jls5Cb5n2aAUUDLiLSZcYDuypD/yI0yWdMOuZQer3MBSW6/8fJbI281QjIzQ1fZj2wEFQ3sHaLA9aVRVm2dLEDUgZjiMQQXcjdGQIy8oG4PyMZLGQo4ffp8Krh71w+R/38dw+o1+leLhLu6153z1NEv0299K+3+TVvolPMSQ685XHFt6H5jhcsaITANNIaoWvuWTRDzBfbIfmwzS4GZS82ITPgl2kSqie16Zu82e4NPohtWlkwk07k+jz4xFSfZ0ARwExYr1bvbtSjT9BZsT3rAX/85Jn/TbcXL6RFhmVuuAghN1ujO8hctoak2z8CGCbZGnN1OFt7Lh/KDMPyHRmxZXkMd2sg6DreQo8fmMEbFLDSBW3FIoO8JD4LL8ekuGX1C9bNbWQCl6RRICNmyPNsQBeLFjEBoBT6KzQzkE//v5M/dT4DzdcxHbNaSuXGNaVK23/Wq/p90i6/WXm5ZkBRhJmQnPxgqZQ8esysWfbd0uDPOHvcxXRouj1FYqHgbW6mAd7iiJg3wMDLmxUl5ixrMLyFW+VQSBSxYfRnbBihFJqdIUSvztPZiE0ZQfy2DN7SBV9xnIgfUAQrL4nPtt2EE/uCtzaFkaPMesIYkrT2tDT4SFyjL1HFRPOledk2exgSdH0Gjw6tlkRxY+dw8IFXqiT30jnAcg8+yCL1ehKiYeE37vnF25WeaTxHS2x2drl40CQqDdmR1p5Nx62Z3GSio0PmxNIBIwi4bY0cSQah5BIkDALRw0B8Gf3IuWgZQcEIImM7ImdgTLdl2NF/TAqwoOWQjLTJCCC+aptaxgVZm6JMcgdk/bBgYWqCkDl3KwKjXPNIE/QXpBLt7Qj4+6ikRl34lf980oUd84PLtx537syn6IbFXtxwl7kc5eXeBYe6MWU3GtEhM88+JnNseOy5sz5Dv1z2m+KdgqON9MjgcqheEbYEkxc22X0IxhNGxex+ivmpBGMMPqWmG4LQUo9S/cJDnqMiZTvtEWIe3vM3DwA7EhkPDK0pQUoFKjTSMHFpraHqp1z0tcO8W7LQOP7cq/dJktqDEm/Q+pP6tQsODWELiqLGjePDZVwEnHbW2Cvolzi3p8FyfRnPmDRLpEdmtaKtEvS8XbSoFXmeFaFPGJITDVsr44iW5RsiYCgaLGQkMd3AQIMV+WOcsWHx0GU+QrO50S/+gC5Y5JJcm8BakAAoFx80nwkgOgUgNKnZiUuphX44O0luo1VRu+QNvnHnzPi6imr3rOjgg2dIKzwDajXY0un0PGncvOit7sP/8qPP6lNEYVI+bvKMI8npS6nY9x8Kpq1RtlpHlVdEIFwMx9xD0HFG0SYPnGzxgYytOsq5mKPLgbCY51EePhSwxqhQ4E+oxlMRMo0+64cHBlMTXDJU0NheSl+n/OrUQy8xKmzGF5hLQ66gQ6+j7eU2y+1fYUBmQDGNC9aluPTR9Ua0PnHslJmHCF3ymWeP/22lVhlFs+X3aVUsD1jhFeYUEZmFZOsNseDLrAgMgiofwVo+9AlRcqIh8myHaBk7QgAMfIOFjCQHwiRYkT/GGRsWD13mIzSbG4brD3iCR8510Mwnw2QE+OaPhQUMppYEFwOel9k1Gj+nF7fsmDf4xp4z84Nd5SF/p4WmAzb4jIsDNwOKQuR4B1yt2j2lUY/PwQIGl4fyMT+YtXWpWp9NZ097UwCKTyFDQdTN1u5uvSGst1lRdh+5OpzZJJcvxgyTM0cmYHPVzkSWmdWco0LQOieAK5WHd/kSJ18JNk6DYgX0SymJepJ2ueMu/vqn54ZYXFzetLTwq/TU5I/zFpOG+OWtYwYcsF1waDyO6eGbWu25Uik6cdqkcbeFfNSPOXfWaPqdiPNpqfaBNGDzIM1pphe8wAcSKzQYoasPNmyfOnjXDdc/OwAEkDeSUrOC8nOScXWCGarx+AGT39PS0/0wvQPslItP/dRdFCNMiV7CK1voAZ/LaK+2W2/3dD3B5agM6gAUP3Aq36jVflyrqSk0G74pdDfHLpv24OcnsdqZnr0rhc8NuNjcck6HhDh3IGaibcAuJpSXHvY61gU5DC4GnQ6oA2FJbxjl4UMB1x4r9DSIiyGK7fItNNqvk8pnaN47+9ffOGx2BkgE2juNoIfTvlYut3wXj+sOZpJjwGWDaYQbEcdfL5WTJ8ZOnvmVPFs0Q/75tfrGe9Xr0Z50InN9ic6YcVLT50T7ETk2k2OnUBZ0ORYED30rH8G6mMwg5eMoY4cEsnxDJAZ44g8fnxkDTHdkzREa4SEUfFhHSjYq/Mxtd4CHOiRsVJjxaBabE9XjfRcv7tq9aPCNpQXIpbp6nPZegz74yDV+Oikaf86MJ+mBox112NjnQfsq0yl+rbvr8VISnXTVt8fdXWRo3ORrR0ZRz2TqlzFxqbQpZkR06HKl5ZwVoTvPQl9mRcjmTlYOkYt5sxyEneTNaXl4R6cjposGD59pORQ9ZNZ4nVp1Fx0NdVxyymGPZvCGgOt6tLzlgkpb+/7V7oFZiFtky9Kj5PkZk8aPpGPAGTNothm33B1sNS1nAUGiq5j09WiclMdPO/voZ4s0fI5eYtNd7vkQzVzfp3fV7IIH5Pvlp3RMkSGihwNtwAcjbJvB06/ByPL+6DPNAocTDzxaEFLv6nm+UW6cWVbtN//665/IPeyBwPFTrtmsqmqz6SRkNJ0QZn9+Sasd8G/4Scv4Zs04e8K4iJ7X/DJNub8YqGs7ffUWTpRa2ukB5mVX05KSH8349oT7m8ke94NZu9WryZdopBxMorvQy22wW8Fgbibm80yP+d0YQjRXMKF2+I0kfF8ajF74jjAjDd7V4+r2ZkSW9bm0h+AYUIc+3Ygad9Iy+IsvP+OIB1x9YXn8OdP3pJ8qOrnc0v65eg82at4bhrBBq+N4lA6ITpwxkdYOHEXOVOL4IbK2HAddA+kbbQ200pC2wqfipP65ad8+7q/NtPPqC1XfkC46nkRhO6VcLg+n4Pd7ZnS7M7SLwebyV/VghH/wiP3CVYZ6vYu68hf1RvmCEUNKC35+8iebXko4fvIVO9RU+UpSsAdpso/dhu0e7DrFsUa3b/ea/e2xj0XUoevTCcLTZHTDwTbcTD+Cao4RH2hEyS/aq62/v6zDf84gTx6XC+KG+g96JcgBNJL3oteBbYwBiYfs+7xlBwMttBPOeuFABD4crJ4OM8u5g9nnpzXGGDyorJcWddDlENpbdNLuNMIGei9dzP/T1G8e3nSvAfnPnH/50J7OlkNJz0nltvaD6j3dfY8LFAxCoos+C+N69b14xIPbS1e6byiV40+s7N1ws7bhBI8i9ZtSpf71aWcet6gZlnl0haHju9+Nnm3fbfNqtfY5upZzPL3udAfSQf95Q6ZA43IMxiKtAzEYWQd2VfX6P+lu+5V0O3Hqdsv+/sJ3vvMd2tay1+3C1tDEMqxSjqbQgoIv0/EdLvYXjv9QdjDrcIWm7qumnz3ueNhhpyZ8b9qO5crwJ6vdg3pFZrnbJcu5aDabQ9dQrqWDvt/P6JjwYl8Vfea0y4dW123fg1bk7E43/3ah1u5EenagRbVbluj9JTiGxEbHH/c4CDMQBm0fBqP0at5gBA8DKUy4xITjoIiO33DBHjM2zUyv0S8UPE1D7slGUn+iFJUeLUXlv116xmH2B4RCPWF9fMd1m6ty16fJ+SPoBtPH+dofPcy9OiVcEuqOejabffpYfpDJRmfCuTNvoi3to+T86uSv5wsHtFF/lJZ+f2f4BiP/uPlrf6jTcwn9OoIeN+W3u0aq9gEVNUZH9WhvavUoGqBYYEsxwWzBocEBF3zIGUapa+GMxxHkQ1vGmBeGRVCK6bhG79p5ji6U/JWUPliPG3dPO33sI6m25SjRrHbil35VXrzV+mPostp36dLL+/t82LEcZgYMiig2kum0cPlY0cnRRWXsuTMPpLOQW6mYv7ZcJFZxjtkDjwXQrbtl5Px9dOH6TvoRohuu6eUsui9uY8XH0vLQDeKosV45ikbUqsk6FI1h9ILtoUkcDSlFUSudq7XQjDrUP2OjeSuKltF5eQ/t7rtpQ16alOJlUVW9k1Tit2NVW1yv1d9aWhv2Bp4m7IsvzTDjv3/1nkmj9knaER9IU+l+dNdiRL1Oz+zgZQKrdYpqdDA7esaZR/9N3LQDEIRx505/jFa47rpcx0yiaRXl+lgJl2To8dGGmkVLxy+tlqL7Nh0yrOvnX/2PHpq7Vt8pvbeY0Qz3Hz+/oaXSWW0Z2qjv26j3fI467Pi43BIltGtdo/qJj2drt9O1v4PdZnsDUL8tvzx/TWqY1xg6nsIdgFqtWqM94PPUuBeoLY/Q7eU76++oB2Z/fyzdGVi9Ey6+d1a696ex9wFqw150DLAdbUHb0xNprZjhBmthwKBHhd58Uq/+a+PZHV/xHmTzBiCcoFf2nkbZ+YPu0EoywLtsOtjH2Rf9AlQPvQDxTnov7B1REt/flXQ/NbS1vXPJ0sU9lXWGdqstVc/ssWPTH00eYB/pIa6SupeOMzdRLW1dXa1dqq2tUkpG0YHhfrTbPoCWIn+oXGkbiuM4OUEaYBdWnbqo8YUZkyZcGjqQGYDHHDOrVNq9/nQUl0eu1ge0YUv6WOczUBwM08dcwH6Hzjfeph31Epot6aOWxFEynxZnvkq0+YR8vREnb9AKkSW1UnlxXG0saynF1a5WZW+alur1tqQ7amlU4iFUHk6Xf9ahK/0b0CnHhmRlMzpA3JxW+mxCx5IjaDYeRvvO4TSrrUOHD8NxFsznJrROXu951twjhrwuQPvoKsZ9dOKxfx4/MwABoifd1qGXSb9KxaF5Qu92Gl864VXb+q4DBivTcGaMck4AeNjw9UYzkKjMA4rzfiymyLGxJpIoLq/PnDR2E0gfAMwAAAY+SURBVIpb7pbln8yZFpor1BPkOtya2PAV8RkDR99NqdGi2ip+ZA8v3cYunFbzdNLb37Mf0JlPOOAh16ATBd6V8sBcEY/WTFncvaFLZ0cVDT60qvCSy+O3Xv3MLgcf0aCLpWNoU14zI7DW61UWAewx6Ee6vzTjrLHXNnOicABC6PHbrrljt4OP2oAO4PdbnS9QN2vgWt7KjwDfbmvUp8z49rheT2bzDmcyHo+fPOMqeiLqWNzgX5vWRqBZBHC3ii4XXUzL7U9shhNe7jGgMCWfX3/qv+gBIyxcFdLafG0EMhHA4KOD3kt2rI09KcMsIPRpBhRZWrx6cRyXv4gD9LVpbQTcCOiZr3YBvRvoay69t3LTY8BQeO6ts/+w25i5w2kVLl2pX3tiEsbn37WOqyWNam3KzG9POGN5Y7BcM6AonzBlxhfpIutFdPV+7T5ZgvJvmtM0VI9V/QvTzzr2N/0JQb8GIAyN+/41+0b1HnqyjR5mWZv+LSNAO8Ee+oXL/aZNOq5/y8koav2ewWaeedSDqjJkW7rNdCcWGa5N/z4RoDdZ0FW55E76uY5tV2TwIWL9ngHdcNMChvNpKj6FlBW8kdJFry2v4RHAEuuf0mWWbw5EOwZkAMKRCedOO4Am1CvpZvs2q//CyIEI3b+XDj7LrTfmqVLj+BkTJ9w5UK0fsAEIh7CSJto9uZp+9epQmlzpDHvtmfJAddSq00NDhJa/0t8NCxqbHDGnY8yAPmQyoANQgjTuvBnvj6rRNHox0XaD/YIbsbk2H/gI4MEtWtz7SkPF42efNfaugbcwQMeARY6NnzLzezQJnkTT93prd8tFUVr96Pqicv1tush2yfSJ478xmB72+yy4L07NmDRuYjnq2YVuDl5C73ah4T4oE25fXFmL6WMESq3UT43G9LqKdx7swQeXVtqImDDl6t3pCbYf063qMVgk9m5cbd3HPl7tYLjHTyu4aeCpu+hY75szO8bft7KcXGkDEA3CMxHtTzRG0lNrl9HPeu1fo7ddrU2rNgL4eTV6xHUuPXJw7GvqmSfmOL//tjI8W6kD0G0Q/azDwfQs7TfIgUPoXmJl7VIvNzqDW8Z6PTompwflG7fQW6F+OnvShD8OrsVi7atsAMIleqtB/A+1/YY9pfIP6MXmJ+DZ3rWrr4s7a8U5eAEyPR1Yrf6ODoJOrv+99Ors2YP3FGBf/F2lA9B18ITv/WmjpY3F/01P9h5Dg/F9eJZijX0G1m3YKi7jjLZUojdJ1LqfoSddZreW4l9d/q2x81axW9b8ajMArUdUOHby1e+tR/Wf0znSIfRYo8taW16OCOC5DDrZuy8uxf877cyxTd+7uBxqBxS6Wg5AaeFnOn67cT3u/mQjLh1OBy2H0rv/6LVy/XxNryh9l+YYbPxTuvQkXlRv3EzvWLy2pCp/nHbWUf9cnZu8Wg/AMHDj6ccPaT6cSK/fHklrEbHwYY3yP2zPgNTxvG1CF08a6jW6Zfb/Rry0+MJf/epLg/v7CgPiuFayRnbg+I7pmyelaC+65zyGXkn0qZaWth3oGiN+jwS7nAEMz+qlimc5Op6jB8TwfPLLdNL2R7qScBO9R+bh2WePfWH18rZv3qyRAzBs2ufPu2740p7u4+mI5zP0iqwdaVVOO2HwYyNmPcSaeBxJvqN3aNUned9NxS5q3z9pBef0Wk98Gf3oz/wwDmtiHU18V6VDO64fMqxlydYqKW9FM8RomiU/RA08oNw+bCi97pbOrGmW5PdHrz6DEjMbrs3hEgm9k4fevPBOnV5neTcNvjuTOLmXDjf+Wa6uM++qjk++/a7qLGrMu24AFnXQp8/79fBh9WEfoh9vobdQRftTp25DR0/t1PdtNBTpBqhqwyULTjw29QC1w9ShFdnQdAqpiWoa3JRmFmXgbfZd/EmSLroi/BqV71N1dQ+94GjO7Imr/2vkdFtX/DuN0YrrWuM04CVMPeUWekNVeWhUawxVSXV9VS5tRYNkC7o/uinNQBvTYN2A7pOuR3PUMGrgcNojDlUxHXk16DVrcYzfwOqhN1/Rq+dp3CX0ZlSVLCGZpTS48QMxbxL2dXoV3Hz6DY9X6V7rvEYSv1Eux0uTRnVpV61rSWXu0CWr+mLwquy4/w/EcIA1Eb+7vQAAAABJRU5ErkJggg==;" vertex="1" parent="1">
          <mxGeometry x="558" y="234" width="54.79" height="50" as="geometry" />
        </mxCell>
        <mxCell id="xqDeTB8OZsrvRhNrIGSB-9" style="edgeStyle=orthogonalEdgeStyle;shape=connector;rounded=1;orthogonalLoop=1;jettySize=auto;html=1;exitX=0;exitY=0.5;exitDx=0;exitDy=0;entryX=0.5;entryY=0;entryDx=0;entryDy=0;labelBackgroundColor=default;fontFamily=Helvetica;fontSize=11;fontColor=default;endArrow=none;strokeColor=#FF8000;strokeWidth=3;" edge="1" parent="1" source="xqDeTB8OZsrvRhNrIGSB-2" target="xqDeTB8OZsrvRhNrIGSB-3">
          <mxGeometry relative="1" as="geometry" />
        </mxCell>
        <mxCell id="xqDeTB8OZsrvRhNrIGSB-10" style="edgeStyle=orthogonalEdgeStyle;shape=connector;rounded=1;orthogonalLoop=1;jettySize=auto;html=1;exitX=1;exitY=0.5;exitDx=0;exitDy=0;entryX=0.5;entryY=0;entryDx=0;entryDy=0;labelBackgroundColor=default;fontFamily=Helvetica;fontSize=11;fontColor=default;endArrow=none;strokeColor=#FF8000;strokeWidth=3;" edge="1" parent="1" source="xqDeTB8OZsrvRhNrIGSB-2" target="xqDeTB8OZsrvRhNrIGSB-6">
          <mxGeometry relative="1" as="geometry" />
        </mxCell>
        <mxCell id="xqDeTB8OZsrvRhNrIGSB-12" style="edgeStyle=orthogonalEdgeStyle;shape=connector;orthogonalLoop=1;jettySize=auto;html=1;exitX=0;exitY=0.25;exitDx=0;exitDy=0;labelBackgroundColor=default;fontFamily=Helvetica;fontSize=11;fontColor=default;endArrow=classic;strokeColor=#A680B8;strokeWidth=3;curved=1;endFill=1;dashed=1;entryX=0.5;entryY=1;entryDx=0;entryDy=0;" edge="1" parent="1" source="xqDeTB8OZsrvRhNrIGSB-2" target="xqDeTB8OZsrvRhNrIGSB-13">
          <mxGeometry relative="1" as="geometry">
            <mxPoint x="418" y="334" as="targetPoint" />
          </mxGeometry>
        </mxCell>
        <mxCell id="xqDeTB8OZsrvRhNrIGSB-2" value="" style="shape=image;verticalLabelPosition=bottom;labelBackgroundColor=default;verticalAlign=top;aspect=fixed;imageAspect=0;image=data:image/png,iVBORw0KGgoAAAANSUhEUgAAAKAAAAC+CAYAAACyEwTGAAAAAXNSR0IArs4c6QAAAHhlWElmTU0AKgAAAAgABAEaAAUAAAABAAAAPgEbAAUAAAABAAAARgEoAAMAAAABAAIAAIdpAAQAAAABAAAATgAAAAAAAACQAAAAAQAAAJAAAAABAAOgAQADAAAAAQABAACgAgAEAAAAAQAAAKCgAwAEAAAAAQAAAL4AAAAAqrGIywAAAAlwSFlzAAAWJQAAFiUBSVIk8AAAJWZJREFUeAHtXQeYHMWVfjOzQbsKK61yzgGBIiAhIYLAJGGCAckiGN8H5zMYG9vgc8CG0xF8h88R2xiwueMAS2gR5uCEAOFDgCSU0QrlLJRz3jjp3l/d1VMzO7Gnd3Z2u+qTtqur3ntV9eqfyvWaSDutgSbUgMfptKf+e0WZNxi6iUJ0r8fjGc/yi51OQ8trbhrwUJhCJ73k/SAQpud27DmxcNUL3/SjFI4C8KuPvzbK46X3PB5vtzCkh8Vf+LTTGiBukBgSAhPLg0M8E1+fNi3oGACnPznrAg95P2TxbbWutQaSacDj9VE4FFjfKtD1Al8ywnTj7nhq9jUh8nzIDWpJujyazsUa4FaQe8kuAW/1lqwBOPWpiqs8YXqHm9ICF6tUFz1TDXB3zG5gVl3w1Cdm3evzeF9gQd5M09f0WgPcDIZtA3Da47Pv8nrpFa1GrYFsNGCr5br9yZk/9Po8L2eTsObVGoAGMgbg9CdnP0Leoqd5Pm279dSq1xqQGsgIRNOfmv1zXlH8iWTWT62BbDWQNgAZfH/y+grvCwXEAna26Wp+rQGhgbQAyN3ui0x9j9aZ1oDTGkgJwDuemDM4QMHbPF5PtdOJa3nNTAMh3m4IebxhX7iXhzyX+4qKxwbr67kQ9rdcUwKwmalIZzeHGpj6eMUErzc0l7dgy+2CMONZcA7Lp5PKcw28/ti0Ja0Lq/qFQ+EFdrMatwV8Zt7W4uN1Z0sKawqK/QU1cWkaJljVMCiTkATsDYMxEijl/zZHBDbZGuaDs8CBNsUpmokrWYlvJK+Z8XRSL2hTEggEavytazvXvTRjcm1sjqb+oqKbrz68g8MzPgsQBa6KigrfjsL+Pw+FPNfzQa2+vNbXmoXyVi875WhVOMSvRqhoeY2oyDggZHkNj3kEB1KEmLAYM8g4IULEKcHGu6A3qEUAWDgxk9MK4uwY58pERvjkGROoBZPvIXAazBAkZIFSBKFQpuOtclKFIJ5/5UKoQSv+GiIEj/kOOvaG+I9MXy07SGPfI+VBpPhnZhFKBof1YI8RgL/Cx3+EX03PYjAipa4FPfgsDwhNOcJjROBvmMd6vE0myiDew+EABwOrB0Kh8JKQr+pHrz9yzxGwSXf7E7Mf9hYV/TLox5gwfSf1RL+uWF9eW1Cz3Of1DQyGgoYEpcCRnBuFkDAAoSCzSmbUnSlAPGKVjgpSnfXKHstvEoA3itp6N0JB3yDeCjBpIEvQiT9W0jJfgkpJON67pBWiJK0lTnAIuSI/Mh7JKv4oXkEtCKLyL/hFnCWc4035piyZmhTdMA1TuEVvSRCVJfilSCUf8CJYygM41HfEA5jhYOiwxxscOeundxwSYfxn6vcrSnyduEOQmZIRKZ5iDPjMvKXt6gtqlgJ8IQm+FIw62p0aADg9Pl+XMHnfUDXw+m+m1TD4Dqth6fgFAGvqiqZ6fQWDNfjSUZmmCXMjVVBYcjFfv+gTpY0wZdb/MrMAIDfQ3wkrY6AoofpFayCOBkLBAPlCNC5OVEZBxiHSMI1SRgkZCdDE7tSA6IoDoS7Zlt5YB7SmItmK0/xu0kDIXEDIpswGALORoHm1BrLQgAZgFsrTrNlrQAMwex1qCVloQAMwC+Vp1uw1oAGYvQ61hCw0oAGYhfI0a/Ya0ADMXodaQhYa0ADMQnmaNXsNaHMaCXTIx45oRL/O1L28De0/fpYqdxyiAp/+vSZQl+1gDcA4qgsEQ/QPV46g8wd3s2J3Hz5Nv5+7gur8kXODVqT22NaA/knHqA57nF+bfF4U+EDSp0s7+tn0SdS3c7tMj7zFpKBfVQ1oACraQLc7/bLhNG5odyU04i0rLaYHb7yQunYo1SCMqCUrnwagqT6v10P3Xz+Wxg/tkVShhQVeemTaxTRmQFcCYPU5jqTqShmpx4CsIi8fM//ejedTL+5e03EA6z3XjKL6QJDWfXEEp9S1s6kBV7eAGO+1KiqgH9wyLm3wqXq+j1vMy0b0JUxatLOnAVe3gGWti+lHt46nVsWF9rTHXFMvGcbdcJg+Wrtbt4Q2tOjKFjDIY7fOZaWi5csGfFLft11yDt0ycSjV+4MahFIpaT5d1wLi1uCAbmX0nRvOT1NF6ZFdMbof+Xihes6iTcxg3nlMj9XVVK5qATFpOLdPJ7p/yphGqfTLRvShe6/myYlerE5bv64BICYcE4b1oHuuHtGoW2qjB3alH9w2vlHTSLt2mwGhKwCIsdn1Fw6k2y8dnpMqGdqrI025YJBYJ8xJgs04EVcA8JzeHWnyyOg71I1dZ18a25+T0GPBVHp2BQC7lcPGUm6djxerS7JY3sltbpsuNVcAcNehUznfu91x4ARV18GolHbJNOCKZZi9R8/SL95YRleM6kNlrVtZ+gjyDkYdjw9jXW19wDDHpkT4mdbP5ijgsJRjOA/V1PuVd6I65t1+8IQ4Q4hWEJMf7RJrwBUAxF7tkVM19MqC9QwsEzoc1rtTW7EPbEBEBQpHKsDBF1FgDtHnYw+cSsqvIRa6+8hpsRCNaFDh06TapdaAKwAINQAPRQX8bUYGD2bFD/A+7tBe5cKYZGo1pabYvOcY/WHuSgafbvVSaytC4RoARorMn/X0+WhIzw4iCCdhnHD9u7UX3a1u+TLTpismIbEqAeaUHjY22ta70/JsZaIZMrkSgDg+hUmFdk2vAVcCsOnVrnMgNeBSAIbJxx871q7pNeDKSQimxB+u2UVXjelPQXySwAG3bPM+saTjgChXiXAlAAv53N67q3bSwvV7RWWLz0YoswjxJWQ+tCodfOqCshXDHl5rFgt/p6vrjDVFK1Jy62cyDbgSgFAIdilq/QEa1b8LlZVid0RtCTFNxntDG7QCXxKs/LL/xFnauOeIbv2gVBvOtQCErm66aDBNGt7LhtqiWV58v5JWbTsoQB0do99SacC1I3H0nOVtIvvCqRSVLL5j25KoLjoZrY6L1oBrAYiuFEf0nXB62Gdfi64FoH2VaU4nNaAB6KQ2tayMNeBqAOJ+sBOuVt8Htq3GvJkFY50NB0ThcrVLMXf5NirgHZE2JUXWJAKTE+GATazGmK/qw/qsGUfuPXqGlvMidC7yjLxgHxsnbrCM1BJckwMQFqZatyqiwd3LaEDX9kLBSzbtp8Onqhv9UOfp6nr6y/w1FGTwt2YbMdIJ0Mm1Pg6EDSz5MUcZh8Xr6tqAuH5ZIA+qSgGN9Bw7qDuNHtCNjp6upiUb99DBE1XNfv0xovVGUloqsd06tKZ7rjyXSpULPOf17cRH6JdTwKEuMlkeShh4d7FByoHd2ycjaxCHc4QfrN5B767c0SDO6QBsF04Y1pu+MWWsJfrKMQPoFxWLaM+RM1ZYc/Q02RgQLUg/tjp6/7WjosAHJbYq8lHX9rm5yQbrWMP7dORWuDCj/yXFBXTjRUPi99EOI8EfCNHk0f2jpCK/j915OR+sde5Ud1QCOXppEgBivHde70709cnnxh3LYHRTwIYg4QBUjHti/zs1gUAaoluFJ0PHWSOPQ2Mx5AHyov4r+cEh2liHOyoPT53IxtS78qEKu6WIlZrb95x3wVDwhYO60Y3jBiYtKRRexCD8ykVDqVNZiVEzFoeHjp+tpTc+3SyuPkL1Ie6mIBtwilw8ysGxqzTqHeCQ+MGPDywon7wOgNbsgsE9CNZXjTKgHIbbvv84rf3icMIfCQ5WPHzbBHrxvc9o4brdlkzJn+/PnAIQY5krR/aly89Ltf+Kqz0e7qLb86+7U1wddufL5l8c6U4fs10+jB/HD+lOqAy1puqDQVq8YS/veKgHDeKKa7TANjzBGtC9AwMrGqknztTQrsMnRX5vnXQOTRzeO24e0PI/9Pz7cePUwHuvHUvFhQX0/srtzcouTc4AiBbgpnGD6IJBXVW9JfWnOjOK3g/gevCGkdSzY5u4siYN70n/MnOxaBmKC31UwpUkoQBQlPJYTrZOcQWkCESrxXecIo7PctXU+cUMHss7T9x9GQNDJYiQvr10C73NrXg57yUncplYWLjrypG8v11CFZ9sEC1sIpn5FJ4TAKILuuuyc2ioeRPNSQVgjNi+tCihSLRAWKPrw3eAv3NDZBYZYeC21iYCwffbb34pIgo+Djx2uoaervhUAK8oAfhA2rsT26RmGTGNI6KiHOJT0UiGKeMHUxvWxwvvrDJ6BBmRp89GByAqAMssuASevpNtVPocySixwH35iN6iVUpE99aSrXSyqtYABIhisqB2ofCPZiv5Y3ksG+8aZqd2JdS3SxkdOlmVKLmMwgH06tq6tHkuZbvVGJY8+/ZynsSlzdYkhI0KQHQf918zktqzLebMnMfxwTRaymRu875jdIA/yQVACUqFHu+xAOzC65fx2lOkAdrkqSXLSaK4zJrpC4b0oMfumkwzXvkwkcC8CG+0ZZg2PLP79pTRNsBn6CWdraZ4rU9eaDVPMtGPTRHPuHuymJxgxykfXaMAEB/1e+C6UbbBl66iWsHUhnZJNdCPtzd/c/+11DOjIVBSkY5GOg5ArG1NnzRE7GY4mtMWKgwdq5+Xi1K5bFowjAcf//oVvFLQ1jFbOKnym2684wDEskbvBEsi6WbKbXTBYPLuESCtYbNv2TgYZvr2TeMdOwWeTV5UXscBiCWXrA8RsMblLoGaWTf7M5uCxNcUjp5hgT+fnOMArOZF2EUb92U1C4SK8D225uzyMff/OX913u2SOA5AzEwXbzpALy/YaBlsbM5AspN36MAyZmlHQCPwvLdiG23gDyums7rQCMknFOk4AJESus+dbJf5+flrsx67JMx5nkek1QKmRWQUNNU6ZjJ1LKjcSS99UIlNmrxzjQJAlBKtwLEztfSn9z6nU1Xpr+I3mYZ4HoCpgPgPPxaT+T8qPvYpwADCLB0OT6QFCiaqrvXbSq3i4/X00vzKhPvRtoQ6yNSoOyFQLo69P/NOJX3zmhHUhT8QmK7DENDJtdNAipkmLJy24x0b/HAADLWrElhjIEoHb4/y+IcfJE165/PQJDVOs4QfzSsffM4ntreIhehI7mUO8+PZqABEEQFCHMP68wfr+ADqcOqV5hINDhAEQqnXx4w0klQiR+HEyjw+Oo89WnHyxKwNYXyc27y2JcXis6t2qgSTLnVmifLuOHCStu0/IS47JclZI0HPKMUzby6j1WwupFVhIZcwX+HHB4/tKN0Oj5+tEDz33hpxKmYYGwdP5aAytWLj0nNto6XayhU+qn/nuCQ7Dp4iHGk/U1NPv/qfFVGfX0BXin3qJ792qWj54gpIEgj+bz7zLn+QRtmR4Yyj5cYRLBhDP8vp4lhWPLf7CL5fkhocyUAcKxc/iF/NWUKb9xzVp2FilYMtutcWbRanoccO6BIbHfWOiQxuxiVze/jTCOguZ7PMudzCiWMEXJ+iTlFr7DnLYyekCyfO5Sn1jcpvxecD7TokgTsl6nk/pC1Bdba2np6ctZCHHm2sMBHHjIg7Im7+cQ8hMhw/FxgSoAfh897xCZRQ/MhnvPwx662KW33+USSRq7A1qde+9rPIdsXizVTFwLiED4smcujKjvGp4b98sJa6tCtV1I8aJnE1cdO+4+KsHyoI9vmEY6VH9G5WmgBjopQaNxxj4FNVx6xEjLzxEX0UkB2GGu+u2EqlDGR8bzhSUINm3a7D4pROdV29JSOe5zAf/fq31xbRibM1qXuOeAKaKKxJAIhtofmVu/j8XR3dcOGAuEWXC9E7uQvdzv+FYzyhlcMBezzRskXAFldMXgRKsBmZwY/CAJ/M3D6+3P77t1dY0bJ8KBtaTAAz2XDkC17yenLmJ6KlRM/RHHQiy94kAETiqJQlm/cLpd08fpDMj/VUN9+t6jJbMuvdorbvkV2iHQlOWtqX3bYAHWdGTBxkA84FPs5LWvEcFpd/++ZSocd48fke1mQAhGLQgq3cfkgs1dzNM2TpUAk7+FedC3eGhwIL1+2hcXyAU4IgnXRh2u3F99dEjf/S4bNDgz3cNTsPiqupcjwLOYv4FtyL76+OaU/tpNB0PE0KQBQbXcbmfSfoj/MqaWS/zmLh97Nth+gE/+JlN9xY6hFrdYz2Cp7EzPxoQ3R6Sj+GhkiCUzRKZlwxDyXQUudi2w0L0b9/azmN4qsAuPS0dudh2mDOdGXeGktPjSm3yQGIwgFoB09W08HVu6zxS2ODD+nCBMidl5/LPqOvw4TAnBsgOi23nZeA/jgX4zcnBwbxk97A94Px38gtr29i0tLMXV4AsCl0iJb3ytH9eA0vOxUM46+xD+xeTlv5AjlkapeZBpr/Tyiz8kZTK91sdERmbwCxQ6IyS7gFULsbgC2gApt7ETQAm3sNNvP8awA6UIF67Gdfia4FIBZ6T/NBASfcXjYS2cxvEDihBlsyspsC2koyP5gwaaj4ZCOt3Gp84Ug9siTmsuZah1zyUNfaZBjWQ2AH5tiZxjcnnB9acz4XrgQgAIRFZJwTxIkasfdqTmMj4DJ88l0CULzLKa8Z2YbPE1bx6RbtMteAKwFYVlrMlrLGECxnwUmQJVMfWkXQyaekxTv2hGd+tJ7W7Dgkg/UzTQ24EoD92WZKB7aj55TD2bvBPcqpkve1tctMA+6chKTT5GWmxxxsxGWYoWZC7k4ANpPKcUM2NQDdUMt5XEZXAlA97OpU3ciJsVPy3CLHlQDEyRXcWHPS4WyePgyTuUZdMwtGCxXAB0T43xleNnn4xQXinrC1rGI2YZH5ScQHtVqtpmAw4yCTL7yfrasTT3mZHZ9WsHO2MPPqa/4crgAgwNOe1/4uH9mHunUoFV/IFKAycVTA+2gFUd9awJ2VMMHAeuxlIByJV4/FSwjI1g/4hHHyF9+vTHiPQ/LoZw4vpjelsrHu9+3rE5kUdz5nMIv7/ZvH009eWiAuzjufQsuR6IoxYJ/O/D2OHLtyNgOS7BshOc5O3ibnCgAe5QMDuXb7+a6v3+GJTq7LkIv0XAHAtbuO5NREHGbYL7y32rB0kItabMZpuAKAmJH+6s0VbOLCmS8XJavvA8fO0r/+daH4mnkyOh1naMAVAMQMFVbmf/f2Sjp2qvG6Y3wB89dsFg2f/JJLMhpoyTXgCgBKFfjZiNEv/raMNu2NGAuScdk+N+w+So/PWkTV9fYsmWabfnPldxUAsUYHawgvvLuGtvGFcqfcVrbs8OzcVcJ0Ruy6oVNptFQ5rgKgrERYXXhu3mpavvmADLL9XLR+D/3urWV6G86mBl0JQKmrlz9cR5+s3SNfM35+9PkX9Mr/rWPwoW3Vzo4GXLEVl0gxsGz6P0u3Uq0/QFeP7Z+ILG74a/xV8oUMXshQLzTFJdaBCTXgagBCK2i83l6+jW1I19EtE4el7EqxrwyzbJ/tOEiFvLwTfWQhoZ51RAINuLoLljqBxdZF6/fSqwvWy6CEz2ff+YzW7DrUIixTJSxkDiNc3wJKXWMct2LrfrZqX0f3Xj2qwT4ujlj9x5yltI+/qq4tIUitZf/ULaCiQ1gi3cJLKv/Ba4W7FAutOCqIWfMBPmalF5gVhTng1S1gjBIxJsThhV8yCIf1LKey1q2ocuch8Z1d3fLFKMuBVw3ABEqE9VEsVmOGi+5Zgy+BorIM1gBMokC0htjZ0DPdJErKIsrj8ZIeA2ahQM1qXwMAH383bbkGoH0dak6bGvD6YNI4uNIbaHuVBqBNJWo2exrAeDocCMwbFtg0/q8zppzWALSnR81lQwO+Av50bDD0biDo+cp6Gl4w/clZc/UkxIYiNUvmGkDLF/LXP//aY9PvA/dXn5i9yOPxXawBmLkuNUeGGvDxR7P99cE/Vzw6/b47Z7zaLlhQ+D6PAy8KBQN6FpyhLjW5DQ0w+GZUPDr1n/7p+ecLA96CjbywKsAHUXoMaEOhmiU9DWC26wmHf8bg+9fpT7/V4/SRsvVenw9fhbQE6C7YUoX2OKyBUMgfeIDHfM/d+fSrvQL1tdt47a84DPs8itMAVJShvc5pgLcw75792PS/Tn28YkSgnubzunOx2vLJlDQApSb00ykNBAPh8LQ5j07/2/TH54z3+sJLQ2j1Ir1uVDoagFHq0C/ZaIAxVsXDvivm/Hj6J7c/VXFVOBT4WyjMG+pJnARgAnwm4UwShSRVgaofbEnfmVkZo4rvIqjv8WQnlaekBzqpDvgln3xykHDx3tUw1Q+GqHcz/zIdkaBKEFuAGH6QWuQmLd6FPOwimMqQNPLJJMIlelfDVb/ky/wZ5qU9tmGnOl/hjTN/fMuWO37++i1hj/eN6IpUCSN+A4BBug5BIat6JIGlRg4IyEBxbyIqBi9BJYS9xps54IwxRmqkE5EXEWz+HhRRxLxRU3WP5DOIcGLFEi+iVGaT1nyoMfDz0qiVtOqJFQPaUCiWmwPNhD2KbiDHhz+mC8RLI0aUVYuWPDCbRBym3jVW0zKLJZMST8El5XuCQkoUHb/ELbUZiLwbXIbekaXo9BEQ5B0Nbto8oag7DLMfuWXLtCde/UYoFHo2QSoij+ofUeOlpf4lauBx9SUdf0IGAzpRAGJ5xudhjL8pxccym9xx+RqINAKOWeFqRstjRKhxMVH86kke3ZDBDCmM/vnEpSuUoQ3KyhFW3iVRJCB1liK0khvyJD6tMOGBtHIBTllWYNKgbZiSh2nr6WytKuOrT1Tc7yvwPYsF5nSdAGB1XeFapMSoFnyRbBvv4q/SD/LFMHZGnPCBQZleG/GIMZy4thghj5i7teLZI+UrdIgOcXhUkPVuhIKtQXxUAH+Wy0xH+MyWLBSuiuGLKbXMD7KG/0URobIblAJickhBvj8i2g/UntCLysthqrPKYwRGymPy8CMiX7zIZMnKkqJwKyXhkZwhiwceM8rKhfHeit+rRVjIFCyBGg5HdCMaSpHemQL+0tmPmOFVKYgHCI9kAj7wmX0e9RG5kilKiSJn8iXyFHqNvJq+WGYEmwJi5cSSIh59aUxlmIKzeCgJs5fPNluysDcpQa9QWfHpemJ5ASAh2yy7ER9J19JJOgk0EB7NJKWq43yEIQ+iqMgL3pVyx6afIglRilgaiPN4fcRgaxudo8zf4jX6mUvRHFoDNjWgAWhTcZrNGQ1oADqjRy3FpgY0ADNUXIPxUIb8mjxaA3ISEh3qsjfYDFRn8QJkCOPBNr4fIme9sI4g5i5y1gk26IrXY3GpHX7E1wdC1uKL5BVkHIl46YQ8KYMDA2xAE9E+vhKq0kn6lvh0NQAxW8RX0//x6hF0Tp+ODeoXX1OHRYSzdX4qKSqg+6eMpb5dy6InkoyYrfuO05/ZKHl1XYC/Q9yKvn3D+dS1QxuLDrNUAGvllgP08t8/p7pAgLq2b03fuWkcdS4rtdL1B4LiC+7LN++nlWwmBCZ/Yd+6JTtXAxBmNv75lnHUSQGBrOydB08K8NWxxfsCH9PdehF15G9/CAc0mW7V1gP0yodrhXXUtiXF9MPbJlDbUnPdzKTD453lW/n/NrGu2bO8Lf1g6gQqLbaWoIU0fPh6QPcO4v9XLh5Kz/7vKtq4+4hMqkU+XQlAtHwd27ai+6aMoXJ+xrrKHYfpv+av4W7QQ93L29CDN55PJTFgAc/STfvoVTZyie4SX0z/7s3jYkWJ9/dWbqf/XbZVWFcY2a8rfYtbyFSuuLBAyHtq5kLadfgkwaprS3SuBCAqMsgo/Avb+bOcWL01wo9y14cKR1AdrOu/tVKuWRtjPo7wB4P8LbgaAVL0tSfO1tFTsxaLeHXcV8fGL0EH0x74f/AEf8bh1U+sZEU/zenAoduedulwwleW4JCHh7lFfeiF+Wzb2tysFTEt548rAYgW6yRvY0qgiJ0CayuRI83GBnTHQcf1LU/yCqwIsKpb9DBoZHyDRNDKSUoMTrCteJgtbFmDQ8RzmIk/2nP0NC3fsp8e5LHh6IFdBXdpq0Ia0a8LVbJBzJbomtUIF/UO0Bj/Vb8MS/2MX4kSAoiNkWHAL5qNkQlwqg7dtfjP6LX8sUTMgCA1XvXjK5wwioTxopqjXk3wrTu1bI3pbxYtIFqO87lFGNG3E/Uob01FBYmyrVZbtNow4Vix9SD97dMt4rDA41+7JDMrpxDN4PHzEgu60fVfHKGFbCG/tj7IXWV0Wtm+oXUWCDRBjhk4fnwxmM82mbzgT1STeZE5ZALLJN+9bjR1aR9ZrrCTuVXbDtHrizeTj5sg9JAwywsD45m6VjzBbVtaToPZduD14wfTL+cso/3HT2cqJiN6gK+lOod/u86qCYP2+68blTX4/l65S9h/dtq6KbrLh3gZp2O7UrG84mzp3SEtb1tA7BJcPaavWLCVVVHPC7UL1++jrftPyCBjPGi+8Ulcmn7pOdRJrtdx+FtLt9FHa3eLr5zz6M7ic8qDVvT7PGn46csLnBLpKjl5C0BU7BUjeluVgV2GP8xdzbPNaj6LhtGQASZ0TxJWOAgKkEo36+ONtHLbQcLJSYtIRjr4LGtTzDspnWnTnqMOSnWHqLztgrt3aG1MGc16+HDNbjrBX6HETFGuqcU+5SwU3/L407xKBt+BnBkV790p67OZ7kBcTCnzFoCxn7s/WV0nli9i8h/1iiUOLNg+914l7eCttFzuo5YUsemxqNzol3Q0kLddcDqZj6UB4J7lwwP+gGFYvFH73djE9bstDeRtC2irNMyEo1VoCbVrHhpocQBsHmrXuZQa0ACUmtDPnGsAk0YNwBypHfvXWFrCaWftDA2wfYW9Whs5QAPWKtvwHt7DfKi1LfbytOO1XC/5wvT7FjULTrdeYS6sls/52dkLTjcNSYc1ya68pvkDBh9av3SWasR5QGUiVcN5FROrdJhlwnn8RNcbDoX2eQLB/3RlC+jlX99KPkrf2A4tX7+u7elnt0/iAwzSQEhiFIEe90JumjDEOvkC6j1HTjV2VnMoX5iEOhUM1E2cNeOOo65sAXGI4KO1e+iSc3s3+C6wUzWBvexzencSx+9x1wMO65Tn9e1C1bV+JZnIDjUOn141ZgB142sA0p3k09TrvzgsX5v1E90u2x/a6wv4L5s94+7dKIwrAYiCo1t7e9k2um3SULw66tCSTRjWk75+1aioNUl0+XddOSLttLCm+fTsxeLCE7qt5u1wDC60O1TuOfe1B+48K8viWgBCAR+v2y0q98aLBjW4oSYVlOkTLd/Ec3rR3V9KH2jx0jh0oor++4M1dOxMbcotyHj8+RQGa/mhgH99UaD+ilceuNsCH/LoagDiUOoKHguu2n6QLmHQXHxur8jVywxrEBeI0EbdevEwumps/wy5I+R7+S7yvBXbaDXnCad70PAlHjVG+PLZFwwEPpsd3HQhzZjR4GZV3gIQR91V17mshIJfhMSJZjXcCT+6ur+v2UXzV+80zw2yVPSjpoNPjtREqIzjF4PKMICGbvLtZVvojcWbJKvBaRCJMHkRyiKQskDJfhz5ZyOPPF60KJqtB9+GCwb8i0JBz3XxwIeC5S0A9x07K04Z48gV3DVj+tHnO4+IK45RAysRm/0fHPOStnUNkEVk4l3BSVSLpGBLMIBOPXkt+IwiWPERyRAsQYxQ3hnAQF0QxEoWgc3qT8AfmDv70a/ekCzTeQtAHKuat2InfXncACv/D918AV9bPECHTlZHjsArFYhzqp9tP0SwZoD1tz6d21LPjm2MClXpmHD55gM8/mM6RsiQnh2pE19Ql1WOJ69UiXOHizfuFQiBvLGDuvFY0bggJDJlEAq+pUwHWdrxD5C/DReo878RCm24I5U+8haAaJGW82nmkf06UZ8u7UQ50LJMGNYjYZkWfL5bnIgGEAZ0a0/fun50A1pg5A2+nITJAuiG81LJN64d1YAO3fJz8z4zzQl76PIRfejWScMa0EHO068vEYaFZGvdgMhlAX5/3X9XPHb7P6RT7LwFIDKPVuelD9fTly8cSGMHdklanjl83fLTjftEa3XR0O407ZKGYIG8mR9vINyQQ684mUF140WDG8iFdasX319NW9joEKYWN/PC8OUj+zSgq+L1vGfeWsG34s6I1rIBgcsC2AhTMRsK+03Fo7c/lG7R8xqAKAS6U1ynXLRhH117fj/RrcIUmnRebikrPtlMn+04JBZ6JzD4bpk4RLRwkgZPdI4vsWWqzXtPsD9Ml/Ei9A3jBwk6teOs5/R+x6A6fKpajPtunjCYJvHs2M8tnerOVNXRv83+lGp550K3fIZmvB7v07N+NvVXqp5S+cXw+N/fXCXqQM7QrAoxxzRmpCULwXJWiEBBZtLinRsa0xkeKVeGxo6VLFb2WH4pAWHsh4wAW/EvYktVhbygaziDHubTJChL+RI3ukUZj6fBz4vPTCfB0pqNDcG+i4wXRPyCm3V1DCooBnxteHcC6WL/2AiDzZiQAGTI/KpArC7U8qp+kVbDAsqkES3Kb2rNyADCJIXJa8QbtAaPDMFbJFwqE/wWhalPGaCGC17Bb4RKHahlEDEswzRS/q3Zj07/E/jsOtEChlm7fNMs0qzYldaIfFjiKCxA5YdFqyhrB3UiwYfkqxlkCDOc4TGUZhj7kYqvEnRqvMVkLPxCySwE3SxioiohkoAUZ6bnngd0w4VX9xRtFV6AzusNL2v+Wz22yq+ZbGrAy+ZR+HTPSpvsFpsAYDjse6ZlWh6xyqk9DmqAv/tL/vq6zTN/Oq0yW7ECgKWt2r7J39L5nL9mna08ze8CDfCIrabQ5/myE0UVAHxwyuC6urJT5/Oe3UrsMuju2AnVtjAZAhdil4aXEcLTXv3JtG1OlFAAEIJmTJ4c6NjXM5FHltfwLPUdHmDWO5GAltEiNMCQCK1jTHyvqKhgGM985zpVqv8HsWXAGacX5KYAAAAASUVORK5CYII=;" vertex="1" parent="1">
          <mxGeometry x="555.92" y="384" width="58.94" height="70" as="geometry" />
        </mxCell>
        <mxCell id="xqDeTB8OZsrvRhNrIGSB-3" value="" style="shape=image;verticalLabelPosition=bottom;labelBackgroundColor=default;verticalAlign=top;aspect=fixed;imageAspect=0;image=data:image/png,iVBORw0KGgoAAAANSUhEUgAAAH4AAABQCAYAAADfhcHOAAAAAXNSR0IArs4c6QAAAHhlWElmTU0AKgAAAAgABAEaAAUAAAABAAAAPgEbAAUAAAABAAAARgEoAAMAAAABAAIAAIdpAAQAAAABAAAATgAAAAAAAACQAAAAAQAAAJAAAAABAAOgAQADAAAAAQABAACgAgAEAAAAAQAAAH6gAwAEAAAAAQAAAFAAAAAAjOo+ggAAAAlwSFlzAAAWJQAAFiUBSVIk8AAAEKtJREFUeAHtXXuMXkUVv3Mfu0sXKa8qyqsBRC0iD5cAf/ikCjHGFGEXUoGQ8FIsRUEtrQVXqy0hPDSQAr4CGgJsSyWQBgq+iAlBKChoawqhVYyagNCgtrv73cf4+52Zuft9+/q+3X6v7t7Zvd/MnDnnzOPM49wzc+/1vMLNyhZQrPWNv3heZ1p7mleGi3/w8Q9YBh9xhgmAyzLAiGNhQod4ZgiET87P0pKGTnABK08XOuErOdsymHyERvmelyYX37/yvHsZn8yBv/ruupfmB97QIZ6nOjIdm0KDKCkjjMvCEixPFFwLKEOsREGsElAZTWziKByX7RACIfNxeC7B+iNkjs8IxKGOhsRlgCBLVZz5uzq87F8/W9n3D0fjfOY9Y9zND71w5Jr1mx/xfe9oz/O7PcV+3YHeZjpcgJj0TQAi2yHZ1ei0DAHTmRkPtGkaHTDdDILQ8jEkoZf5hpZxduhAAsSG80PxdWRzsPkxFUEv5A9cELJUht6lMS7ZCi7TQRN0CD/+MC86yZ4DU2LaCzE+JF0SlReozEu095/Fqwee/Xc0tOiJr1+0S1DxQ9RxnULrKV+h7XzPZxi+wMb4BkfSmeYuRyNxh+P8MrwKfkyHBERg4xZrQuCqh55bmETBX1WgPuQpr5vNzdlKc3ZyPsKMj3tZnHHTHI3DoY+LEpQ8bFxoXXha/ih+OY+RulTkJ+mOxvmmbFI+aS21n1LBwoOGu3YsXvPQUa4BJxrxg2isVzS6C9gAl8wQTi0ZexwytTM/6++liBNGx7iZ9s3cI6PMIYNfplNDSxLGJQ15II4ga3Ao2BwszGr46d/47CHhsLchSzAvM3M4PwhMJ7TxfJli0fFHPCZJGPiCZmGkVwIgnPw04oQiVFEPBzR4biQKlLyIb31mIKyYIxJyXAESZniZNORvMhMeJBA5CF0ZLbHQKRV52rwYEE6kYYdFW0sn8NU8naW/7b1x4Ph11/W9PZHgt36r77Qe5t0Kd9Hq9beoMLzG6QXVytBZCm7yA/8daZrK7JRk2V/SJL1DedmOTKXKkw6bOK+CXdmyiN6bGpwyjDzddfoyjByUIyEAoETNDA6WKZYAOEliaFi45yQmahZ8STE/tsiI5LkYvoySzQgYQcvNekzydaYyX/VA6kswAg6Gz4FweJCm5yD5pxMJPujv7/dxmSEMzCa7Dum1NWTaOzAQdESdF5ZKQ6gY+n6qX1957ikLaiCdDSgbv7D64XV+oLckmA1l5LMjQPATrvF7S6v0dB5zEnUPOk7vqUq/uLeUvRnlvG/Foq1JGj/u2kgr/0TmO9GIz8t044bNN2CpOBdrfpJhUskwnXCZkxs6zCkZAHLDxMUZV6YTwDDyMLUkUAqklwmeJrWsSZj9EOaYxiSVgg66BChi6AmLH7z+/FfzzGsJZN5cyQO4UA29TEXbayGbXTj+VsyGZ7HFobuI+lBV8OghR0ad4fFxXILQQMP7DNHCfE/jfoI3Mbw1ofKBVcXzU7D0jeIXaN7gQBjAU0zLSINktjp6U4pIQP0kBH6KHqS8fWaXQFpX26qCh9hwl0KNG8IRH4KC4GV0c5QjTK2ccROmJsmwuYSGYdLmPvsO4uwu0o+oSrA3Fa5ZLbDXr/HNaqiZlk8h+Jkm0RrrUwi+xoaaaWg1CB7mVVtrMacibMyq1mdqbmK1JlfiW1gFzWhcy9nh2GwKrwktUFW5g871dpKkb0IRi/NdOqhlVM7gQTmjbxQ5qH3U/Kiwi+JGfc0ofeZOAL8SBwqcVfZEu6PW75WSEm8WC9eMFqgmeHXd53uuRUF4FW4GtUC1qV7G5gyqb1EV2wLVRry3ZsMLy3Dfvgh2twR2cPzKJI2JGrY3WuAwbyecrsVKhzgOFsiUjl9a6Lg7BEpkR6MOfFy01nGHjqsEYTDecGmIk0xdsu76vh2FdBrfAlUFj7X3vVEYnhbDLqthfVPYGeKWJbZ+GMDaTNsdBCjKnJbdMacLcLsQSIBR3lACGcUPUX1Y7VLwYzr3/dEJYt/PuolRuMa3QLWpHiUw1rVcgYPQaYHL4xCkiRPkwiadQpa0Mb7FBXyEj9vxbnylixys2bxoiNnXAjWM+NnXKLOhxoXgZ4OUx6ljDYKfiuUOqpooecjJ+i5u/FFWvsJyN45ImgOqqtVDPRuMk9Ju+DFuyKiOUVWT0skvzXCi7FmPVjuACM6gr4nCR72N926Uuz2xqRgnLyCLpU97JS/CPWLhmtICVQW//OwPX4WS8CrcDGqBqoIfwGHGnTuPqlgSnp9WA1Sn+uEVl8M8VNzWTat5p0hUVfDbo2OWZ/Oyc7Apkxgrm/bejWk65T27WOBgoUOcYTNt42Qd5nnO2XLKhlY54Kb6MFjyOOWbM/XE54Fnzvhygkdn8XmrHrzwweu9V6dYhwJ9Gi1QVfAQy/wgCE9MspIIkHlAfDIu6UvMBGTt5/pOR+sew4wKCBFa+Vw6QoJnfiRcwmG84sxdWas0MlgxhTcyo4J3e7VAIfj2kkfTSlMIvmlN3V4ZFYJvL3k0rTSF4JvW1O2VUQ1avXo5S9KnUeyEjyhR/+Yz8J5KxTxr4nx0CQmI0DQrmjtNtsQRs6xgGT3e4gERVjzyo7YvPp648vMH99urmWZeaaoKfujFR2/esmDBLcf19lJ64ig7XpwuxmXwbUGb8k9/v5zMmDJdQTD1FhhXbhVsjvxYR09nFA2u26rnIeGNikQXeR2Bd+KCTwQ8pEzIBMhMsW6E2xsI4rHs3S18NNsValb4VQXfOXfubWmSXR75u+K3sMHCMUlLnRyvwlk6WvD4dGyWvY4pHnC+82Un3sdCuD1nRwueWP1g0RMcptHqh0Nb3KDhs3hhpIe3qAWno9W3zoqWb3ElqwoeT7lGfhD6SVzqxGpsi4v1GRM/j9HJqs/1GmGTnq8IXPABRDz3QS7J5FNmuzMkCm9xKJTNJnWIoqGb1NDtlk0h+HaTSJPKUwi+SQ3dbtkUgm83iTSpPDUIni8jRGnwI+fmRvtQ7wycKC4MAkNk0hxO7lt+iBNP6O27JZtU71mfTVWtHndbT+kkoQJvzsNBS6f2bmxu1NjRhvKUjFHNXZg4vHXjEzQKFjwq9wbZ6PMkE0c46cFfxfotgRU/DW+BqoJfcfbJP0cpeBVuBrVADVP9DKptUZW8BcYVPGZf3VLTKV5Cmi8FeVGLQD1bYPypXntH9z/wzEau5nyEmS5/nRnDNLnSBIckjXQ5WEkkOTNvzLFculPaY+G4vvOxaONg5uWTt4QTAD2Aj1qLAz6swMQ8Tllak1DjL3oLXt1d9ob5GulmOpo5+1pRy3EFD0V7vyDwP0N5UOMWQWNu4KPRHIl8dx0PU2Z8PhpbtAHCgkNNHmEf9lza5gNu37LzUP6iADIGOF78zo5jOhMeoxb7L/iC3rw/0dj2QTUll+GBfLyhefn31v8eWz7IG+XnfoE4FEKK4TgiYvqW6XQGCzgO3fZFcqBD/4QbSa8MMyaZEclQkID1xwsFHCvLWhDYhsYZ30WFDxKEhj+SzLJbfHg2lJPjXaJ5mAFDy4HGtxRyHOlPsK3L3biCJ4IcjQau21SBHEVQLk0EZ2EUuvyROcNjLsNPaMekmQ5g+Fo+wJmOY2Oia16gffRI5oN+qPAj3CAEdlpGmAs3GygXlxP7HgnwqL51JsW8AdTwYmfiSWHjEGa/NgzlowHMj3EB866Gf/Y9uyyPITW8+E4AwearPuGwUSE+PQnxBwR8eyjLhZKRhfRnOcFMbElifpZXTsxE4OOXKU4ehDo3oeAdwt7mm06IUtvOUx5nQxBMgTCQhx26hbHOpBvxDe5IXEJkZHkZ/JzGIDJZ+AinnLfNt4K/wSvnb5KJO1IOGyyDSQamDDYvUyYHH+FL3uVuxgm+vHKtDhvDFsYcO0iu47S6VCb/QvANkIPoRZkehLTvxlmDzZip52KxXeSH4acyvkSoDVwh+AYIAcJO5yTq8DVLFr5Zxn7tVWsfvyUIo2uSuPU3HkazKCvdtIOYzlApTmuPQf1fgQnuLqxJqbHDT5vrXknoa3XJKKFLPW6/8qxrIfQt7VCpuo34IIq8pDS86rYrFt7gKrbkR5tuwmffeJSqy8FmgT+cBumEjwbjTmAj7vSOa3U71G3E42jWa7deNiJ0VuyOy87cAe8J3AM1rp72u22Ny2CqnLUK0pGbwjHU+PLDGFgLAHUrBGQ75muGUh+lX5Vz+A2qHN7W8d+Gdqwpl9vHh5T0qROSae+zE6Y1J0HuD+sneK1O6O0doC2v0mnvdOg6lbA6xo6Ne55vLz0Chhqlbr/6jk0fHV3NJWs33RNE4ftHw5sb139ifnVb41UQzDns0wc+s2zhkwt3egfs7t61PUw6970Ar8I8jda/Rrm+PpXi27gD+Bpmn9sbaFRetfKF6Lv8zuipr9z9yx8nWbwe3wedByscFF71gZQfRWyRkwGSeWuZfd0En/HMvQp6SirdPkfvfC2bs//+EMZ8vtu20S7M1DdiL/0c8mkbJZKznPKDS6Og61LOrfwKpvmiZqNbY2L+uM18K438B4hRt6mezOzIPhDBE1HZ+dw0aYb72jkn/w0vzP0SDNNJO037HAwc4byc6bUZ7TE6D7YJbq3/l8bqI/y8KNPrKngyDHEvr4LQizqbO/jwdq57dMk7CRX8Q+ecbjyZ0+EFQSS2BeOHCLuLcIadjzDKPJI+Ksw0d1ke/LghlDhWeY8dHljBxxKrXyxfLXgOh/WLuvB2Ga3Xh2r42HX9fflTSnWb6l3t8U3Xa2+7/JO3Lr3zNx/ECHwGu2PyZWeX3kj/m+ef8mfwP3nVwHPvwy7aGdiUPAjbkRUaBrUN8+HDypLga4o8QFAGtBuh8nCPCUsqdgBpfYeR5j1h2HFlkuB7fHvgKJw4Hv5OoP0SZgU8oWaWRlMSjEuTKaBlZbNBt5XrNmpFe7Bp2MHTSvv/9OP0kftW9JZbEKW0coMN5YjtI9OR7JGzL2OL1eyyotKShtraPV1uf463LYsDFfr7l52RzyJL79q0HMN/Ndd5t//MKY9Xnh/DOV+OIZO3rIu2ZnLrmyYX37/yvHv3oI3rSrrsJ78+Iejq/uPwEJ7sRmFdvZiJzAOsJ8PWR4D/kkqfcLqoa4738u4Xux5butR9Xljgjf7JhVSPjNCL1Ffv/NWhjheeizzV1taBZowf67QubUfx75scUhdeU2ncuk/1OsievvruJ+/EiD4TQv84FZzCtV8L1F3wvvKPwPbjmgTTe9omW5Dt1+ytL1HdBc+1C3Z7WcNbX72iBBO1QNPXlokKUsCb2wKF4Jvb3m2TW92n+rapWR0Lsmxg81x/cPBdnjfsDeOmC6d4M9/XR1RaCKaZIW5ZD4i6j7niB48OwayLG6NO3OKFg2u/fObfp8mxJrJixNfQTP7u3Yv9jo5tnr/Pto6urm14F9QrsOQ9XBoerIF6cpQYPKIgeikIO16Ourq3hZ3BtjSON/T39zdUNsWIn1wuJhWf08jsXYozYtFM454ZroXFZDg8gOkMOuIr1fCdrYb2qskqW6S1tgUKwbe2/VuWezHV19D0mNRTTMd8grfiFIWxtpvHlIQNzxbSBg9P7PcuwETCnHOEBOaPZCFR4MJjz3Z+XD6T+IXgJ2kclzSUpes7suh3/FBWuct7gYAr0xwe5Z3jOWAOoKRNxPUL+qnyB6HclW3HOcL6+f8H9bfWuBKqqcYAAAAASUVORK5CYII=;" vertex="1" parent="1">
          <mxGeometry x="387.5" y="554" width="63" height="40" as="geometry" />
        </mxCell>
        <mxCell id="xqDeTB8OZsrvRhNrIGSB-7" style="edgeStyle=orthogonalEdgeStyle;shape=connector;rounded=1;orthogonalLoop=1;jettySize=auto;html=1;exitX=1;exitY=0.5;exitDx=0;exitDy=0;entryX=0;entryY=0.5;entryDx=0;entryDy=0;labelBackgroundColor=default;fontFamily=Helvetica;fontSize=11;fontColor=default;endArrow=none;strokeColor=#FF8000;strokeWidth=3;" edge="1" parent="1" source="xqDeTB8OZsrvRhNrIGSB-5" target="xqDeTB8OZsrvRhNrIGSB-1">
          <mxGeometry relative="1" as="geometry" />
        </mxCell>
        <mxCell id="xqDeTB8OZsrvRhNrIGSB-5" value="" style="shape=image;verticalLabelPosition=bottom;labelBackgroundColor=default;verticalAlign=top;aspect=fixed;imageAspect=0;image=data:image/png,iVBORw0KGgoAAAANSUhEUgAAAKwAAABiCAYAAADN0zgcAAAAAXNSR0IArs4c6QAAAHhlWElmTU0AKgAAAAgABAEaAAUAAAABAAAAPgEbAAUAAAABAAAARgEoAAMAAAABAAIAAIdpAAQAAAABAAAATgAAAAAAAACQAAAAAQAAAJAAAAABAAOgAQADAAAAAQABAACgAgAEAAAAAQAAAKygAwAEAAAAAQAAAGIAAAAAc6xywgAAAAlwSFlzAAAWJQAAFiUBSVIk8AAAFXpJREFUeAHtXQucTdX+X2vtxzlnXopEdPVwuZWoG2nyKNOtv3+kG+WoRCKUimhUF+lcj5GS161cJMqt0SC55EZFCqUUpSeJQt6VeZ3H3nut+93HHWaOmTGP85pj7c9n5ux99tpr/X7f/T1r//Zv/dZvUZIAm2fNTifZv79+siupnsXNFoSRy4ggFwkizqOCnE0oTaOUEUIJ4dzKw7kjlJJdXNDt+PYLwthmYZn71RT9wPCOlxUkACQJqwJuYc3dshZ/2pYxNhgatCZE1GFMTVU0nSiKQgS3iN/n9XMujlAmjhAheFBTQeoIymrruiNJUTVioZxlGsQyzAIQ+ldO+BcqpS883vXK/9RcZBJX8hpH2KeXbW5icX4L4yTTmZJ2tuH3EdMIHAQxd4KYX6BHXU+J+ekF5u5tbrfbKuvWofelT+V83pgz6wpOaTv0tFdQSs9XFLWh5nASX0FunhB0OnrrBSO7XflVWfXI76OLQI0h7KTFn59nMD4Pj/PW6BmT8JhHrxjIxuez1BA/+OrmFXgyMsyqwtc9J0dpSS5MCTB+rkbpfZyIB1XNYf8Y/JSI74RF+ox0t95S1frldeFBIO4JO3bJpsYq549qzqQBgnObQF8KQrJTnLWmDO7UxB8eGE6uxeMRTG++qT/a6otet7WOXtdbkPeGxZlntLvV1pOvkN9EA4G4Juz4Nzc9Rrl4Ej2qCzbmQUKZO2A6PvK4mwWiAY7dhmfNGlU/5GrKKXtT1dQmsHdhZtA5I29rPTBaMsh2TiAQl4Qdu2hzE0bMec6U1Da+wvzDeKF6GnbkMyfEjs3e2EWf9KdCPOlwJTf0FRZ+ITTeb3TX9M9iI83p2WrcEXbcok9vZZTmMEVhwjI+oBa7+XF3q6PxcntycoTyHf3kJXgnesNEMTmhfZ7s3vrVeJEv0eWIK8KOX/zJ3xSmZHE4SwF85ohbr5warzdgXM7HvQSlz+mupDS/t2D66O7pQ+JV1kSSKy4I6/F4mNa881w499FrWQG4p5qP6HbVtngHemT2J39wML6FMaU2fmPvju6RfkO8y1zT5YsLwo5f9Mlc+D77wKe60+Csg8fd6ueaAqwnZ0NtIthSXdPbmYaxbHSPq24Ot+y2x8K8aMMFqmB/sDByR6lIZYTD+8aEKYQfHr7fGBEHNK7uHHln+oFwtx9P9cWUsAKe+QmLP52Jt//+XIjvm/Kdzcpz9scTcMVlmZyzwZUn2BZ4M5qahm+V5/a2HYufr+y+bSdvy/+gQcCp3AWzowd8zy1UVcX7Hpxs9h+24Afu3rEbeGwHAx/EtEyvIuhaDDe/TFjq8q/J196F5QygVFa2WJePKWHHL9o4Es75cfCt7jGY0dLTre3BWANS1fY9c9c4idP5DoaG21lWYLqnx9WVtmnH5Gy8GqbF3SBmhqo7m2o6Bi4CAfz5doCgW8HHH/DD3g+W5oKxcO1hCJpaLvzu66iUNAS5m+DaKxzJabUpChXmHxWMko3CEv+xhHN2Vq9W+6qqX7xcFzPC/j1nY1dd1eCIN/NMXtDA487IjxdQqipH0Dzg5EfN4arlL/S6x/Rss/BUdXmEYCR746WCivmKqrbglilASh/CdD5XKJt2Tb2rl2Rk0EqN4HleWX+2pZI+hIr7wOgGMB0ciqpg0MX/SkB1DZ7YvWUuRgiPddWnEjDOzseEsE/lvFPLIGk/MoXVFhZtP8rdal2c4VJlcTzZm8/nxIfYA5GkKuzK0e6y/bRPZL/fnglHlqKp7exAHATrvANazfApYt0E9zWHqixEsQtHzV/3JwSq3SAIzXSlpJ3nzc8NgMTZarLrYU/XP/9erGiN2I0JYcfmbPwCL1ktAgHfyNHdr8qqEUhVQsjR2et74ZH8CmzKzzy3X90q9NKHpm93nFHnwDg88jPxomZHkX2Fl6e7s3q2jWiswqj5H96D/nwiI0pdBP8QJni3b/V9/65JNm7UCTtmwceDmMqeh022/InurbuE3sxEOfZkb3hdd6W4fd78KWPuaDOsSC/PgvWXWpy+oTkcTQJ+70+qEPd6erZ/t+h8pD8nLl2Xmp9H+lFFm4KnAAKIjLc1p9m9pphkUSXsgE2btHN/tOwXqxTOlOae21p9F+kbFMv6R722fj8ArmeZgeZZvTO+GvmvtT1A4gVGwAeTlS8ec0c7N3rhmNiSmbBzHUSsZqraDMHrPwvDaje+77W7Y4lXRdpGGGj0tgbbzdecruQz0OJjiU5WG1XK6GjK8ABWHcNHZ68bgwDzBWbADjATt4y9s333WJHVlm1S77YHc3/PbQmPxlhFdzYimrp15Etr29jn4nmLWg875rV1zaiqbuWC7HiyR3qTeAYlnLKNenX9XvhQG+Clx47f/ZUzNSPrzvQvw9lGdesaMf+D4XCNTcRMDWr5fekT+l63sbp1Rur6qPWwQtH6YQ6V/QOJ2/iASIBMOe9EmIJpOIGjpqK0jDey2jpn9boGkXD0JsuyiFDV957419rmkcAiHHVGhbAdPB4V9v0gxAn4xbc/zw6H4DWlDmXHe1sDvsJ/O7WUZk/dcfWueJV7Qu92K2DDDEKwerJp0Q2enDX141HW6BD24o6POpKTHRguHOXxuKMWfB0PgCOwhx8uTLptlPvyvfEgT3kyTOjVdgYGLgbgRSzFV8hWDZ2c4yqvfCzORZywwZEcLgb78vMChP48PRZKxrrNWQNbGbGWoaLtT+jV/kXDDCxXHY7meu16Iyp6XbTKRZyw1oKPLsMLx5kIdn6ffPNNpYYYowWCbKcYAnCzPX33tTcH/L7DqqaPynxpzfXFzsZ8N+KEpZymM0Z1jGevtB+PMddYClABBChSN4iuAcNv2fEMnpwcvQIXRaVIxAnLGO9MmUqIYS6PikaykbAgMLF3BuI72PuKrl/i857TOSyVhqGSiBMWY+Q3IGYgz3N3+21hkFdWEUUENEPvaZmmnR1nHgY7ouazL0/FiBJ21IL1jZOS0/A4YcvKE0Kei08EsvqnH4DXYJKiaGmZc1ZXOr43ElpFlLAqZxl2TLwgfEUkhJd1Rh4BbpA5yMXgI1S5087REPkWy28hooQ1hZVuINEa1RybyhdDno1XBJ4dmPGdoHwXup0rC3aRs2ItZ0QJi7iBFobXy9UCNaEnxsX6Jka6fSTam+hISiWYCTEg0m2dqv6IEvZYblbxO0n+XfpfT3Un4vj85H5/mYfcC0hhSh6MtZgRI6zHs0aFghqy/hWQ31Kl/zXWd7qa7SMOZBUGEupmzl57QTWrqtblESPskdpehVLO8M5lHj0zEJMg5WohIy8OQYC9ayeJxuTItiEnonoYMcI6zlBURP8o0CZQq8AvCRvV2xr+xixhbkX4IWY2WZeHv/aK1xgxwqY4jxocGuLFy3E02REXTueKwyJLhiKgCPILjFiDc3YBch/E7H5GjLDBQBfKLMyN12u59JgpGAq8PK4aApZJjyBTo4mptnXdCxdGjjenEC9iDduBLnh++DFqkEK8eRFr5xT6ydNhQkDT83ORKwlTEvgZzb6pG7MOKLJEsh3OWHKImMQZJtxkNTFCoFWqvxAs5ci3kESujZEQaDaihBWcblGxNkBeQJwXOxVly+FAwO3ujhUmwFhBlF+2bUvMHhY/xw2MKkRnevtwgCbriB0CHo8dFGLP/cW/GG4R7WGTa6W+xzF6gIRvYc+ZGkPMTsum8y9cZc/vYkhxVNhgX9OYkTaihLWTjfkK8/ZjdneH0/IuJ5DS1NJT4czCQBD93eOp+npo1YUkIraInSu10IS/TqFnY6rFU8jMl879/vYT+9lR7HKriQgMnfV2M6xRhhVzxB4MCC2EZVCilwWRDJiAueD0YWKaBwije3ws8OOsgV0Kw6lvWOMbh89ZfSsIOriQ0JZEIxryRyEfAWXchDeEiK4QXBI2nHcvinWBrPXh8XFg8LIxmn3cbroEY8Ff2AvgMdaQZNR+P7N0rhsPzFi5BUfTn3ug4+v2NdXdqk3YYXPez1CZ6InBj57IP+q0M0Yj2dku/OK+xppAOzA+u5NT6wDcIdurK6y8PnYIiID5JVZVyCClhDFRRcGkaKHDT5vGBKtPFHoBlk1vAg4001RnG1V3tHno+beRwp6+iqHdV5+7v9PqqmpSZZMgc/bKCwjT38Kv7iL84UckvAgn/AdGtqYk9+lw0GP/AGOUma+qYMjrwogAejDP3wk9UvvDOkLxDoF34WEQNhlPWmS5J98qhug8deiNuyrbYqUJOxSrpqgFxjOwS/ticTVi+L3vIohn5rP3Ziy2fR6VFUCWP10QEPTBGSu7gSH3IZn19YgzgalrvKj5vcOnDu36e0VRqBRhH5n33jWIDliN5GYKFo/4FR1rp0lxnOmuoiDIctFF4KEXVqRbgq0A+c7EgiEmEda1Lwy5aUNFpKiwWytz7hoP42ytojmxdAkfk3ohqyfJWhGIZZlQBP4xqNPHhw7l1sfjeDzyHqhCUdbdP/2tUaHlSjuuSA9LM+e8/xwSZQ7CG2AB4WqbSf2viav8pqUpJr+rGQgMnraypaVYH8JV5rJMa8o/h3R+BJKXaVqekrDDXnpvvkNPvivgL/yROB3XPduz7U81AwopZU1BYMD0FY0ZE2t1zdXQ8HnnzhjSuW9ZspdrEoCs4xhhIKt3e+ruD5pIspYFo/y+OgjMGtxpx5G1BechQ9AOqrB7yjMPyuxhh81e84Cqq89ZhvkbNQIXTbq/Y41dpbA6YMpro4fAvdMXn6tR17fw66YIw+gzY8hNL4e2XiphM19ccyn8ZVtgSPgtwS+c1v96mVcgFDl5HBEE7puy5HzB9O8ZVohEJvBmsx/pXCInW6kmARfWXPhZFUbpYEnWiNwXWWkZCPxzaNddiLp9lMF7wDQ6M7TYSYQdNuvdYQ5XSis4dVdN6pcxJ/QCeSwRiDQCM4d0mcYDgY1OV1KHgdOW3VO8vRKEHTL73XoIBRzpLyz4Ld8q6Fm8oNyXCEQTAa9Gb/EW5hdgfH9iv8lv1y5quwRhsUTPbYxiwWLCX0VY2OGiQvJTIhBtBOY90Hk/+LgQfKzLqHV8AkAJwsKFNZ5hmXK/of4t2gLK9iQCoQg4adLjVLOz1YtxReeOE3borJW368kptbBa3/MvPJCRX1RAfkoEYoXAtIevP2D6vQscSUkNBz731g22HMcJixWmh/oK8xFyrUyKlYCyXYlAKAIWUT2Gz4fILh586gcJa79sIcC6seBiW2EgXw4QhKImj2OGgGGwPQjo2onZK5fc/8LyM4OExcE5CG6pg1GEL8I9BydmmsqGEwKB+cM72p6CbzHVqo7PNM8JEhY9a0tFdxBMGlyVEFpKJRIKAXgL3lcxkKAEyCXHbFhBrqKYPWD6yYcJpalUJjEQENQOPySc0dZBwmJe2aWWYZDnH7y+xLhtYmgrtajpCLCUfUXx15ces2EJbWQa/tyarpiUPzERmDVwYKHfX4g4LNHofz0sr4+sHvsTU12pVSIggLQHRzHJtW6QsBjhwsRy6ksExaQOiYkAch7kIdlncpCwdtYZO7dAYqoqtUoEBBCbjTFaYRwjLBe5mAlbJxEUkzokKgIsDZMKjh4jLLUXXCD1ElVVqVfNR4ApWjLWLd4bJCzI+r3qTFIenbM0tearJjVINAR6P7WskaoohHKx/X82rLUF2bzIUa8zPdGUlfrUfASE8F2FTEPEotbmIGGZJT7ilkEUYV5X89WTGiQaAkyh12HKFsEaWpuChOWatcM0jEKsuNCue06OvXqh3CQCcYHAgJmbNKwD0goTY3MFI3uChHX4/Xthxx4UCrvorMNJaXEhqRRCIgAE8vL21YI7qymxxP6U1MO/BAk7ZZjbC5fBSlVznIWIGLnii6RK3CCgmEYnJEROQ7zLIgzRHvPD2tIxRR1vZ603FPpM3EgrBTntEcBo1tPcMLGkpvW0DUawh7V3Xnig426kel+qqnrT+6Yts9cjkJtEIKYI9Mpa3EtR1XqWZc5b+Lj7qC3MccIGJWN8omUgOxEWXcBasSXPxVR02fjphkDw5Z+STBNxr5bFphXpX4KUMx/s8hHMgq2K6mi9t9YVHYsKyU+JQLQRcG1XejBNawH/68bXRnbdUtR+CcLaXyKn1s0WfF5Yv2DpvVOXyuHaIqTkZ9QQ6DNhyflcEa/iaW+oQr2leMMnEda2ZZFpewh6Wg1jt/MQySWjuIojJvcjioBtihqEv2zn4OYmu/+VEd2OFG/wJMIGT7rOmYFV7T7T9aT/7z/1rbHFL5D7EoFIIrBdbzYVbqxrsEbx2qZWt7mhbZXZe9pG7xm/uPYjTPYsrPTx8OxhXY4bvqGVyGOJQDgQuDPr9RGEKuOxlNdPr43ofn5pdZbew6LkQrfboty6DkExfsro1H6Tlw0prQL5nUQgHAjcBbIqij4eKyjmI8olmJaotHrL7GGLCg+Y+U4j7vV9j4JOLM845sWhXTzodWFhyE0iUH0E7HeknlmLnsUqiUNtsgri+GP2yL+WmfH9lIS1RYK3oAVewlZrurOO4fOv4Jqvz9zB7kPVF1fWcDoj0H3cyw2xpsHLisP1F8vv3WNwcv3CJ9zfl4dJhQhrV+DxrFF3p+V+gslff4aN4QeBb2yUt3kt3upKWS63vCbludMdAdsT8IN2yY2mEMuCcwkF35A96va2FcGlTBs29GKPJ8PMPdefjtmLmcgS41BVbfXutMs/6Dt5yf+FlpXHEoGyELhrbPbN2/SLPyaqthxmAGYRsEH7zHrXllU+9PsK97DFLxzw9JLGhqK8ibWQL1Y0XTECATszRybJ55/OffKWo9LGLY7W6b1v96ZbyGVpSYrVhjNrioJYFcs0sb4s/5Jozi4LHvvrL5VBqEqELWqg76Q32nHCRukOV8fgFAYzcADmwtdc0NWYg/NOx3Nv+sztxmLjcjutELCDrnMPbb8Szn88fVkHJMC4RNEcdW2ymUZgKeHWhAWj79hYFVCqRdiiBu+avPSPuiVGI6Y2AzZuXfyKHFjwGy99nJgB31E0shuZD+w1E/KKrjnxaTscisSw98s2iavtmoDhXdpW4hcV2nzpl5RWTdi/CxUliM3JX5babpGtF1o8nOocqxs1BnGltfBZB0nbGmkOPZUiropbJsEwvw+39yDSDL3j0NiYVx53/1yqwBX8sogpFSxefrFBz+ek+PIdDU0mkBZRtAN5r4ASf4IS58BawcWlwBXyFUhfbiPlnw299ETp4N6Jw9CCJ44rUKbsIiFnQg5PNFJyr6jYSboXnShZ/PhRaTev6JKT6rKvKjp5vIbyd0oWL3lUWl32Uxb3ei/k+g45hz/Hc38d5mN9p2uBvfOH9y4ovzV5ViKQgAj8Fy/6IfDYBvtmAAAAAElFTkSuQmCC;" vertex="1" parent="1">
          <mxGeometry x="378" y="235.64" width="82" height="46.72" as="geometry" />
        </mxCell>
        <mxCell id="xqDeTB8OZsrvRhNrIGSB-6" value="" style="shape=image;verticalLabelPosition=bottom;labelBackgroundColor=default;verticalAlign=top;aspect=fixed;imageAspect=0;image=data:image/png,iVBORw0KGgoAAAANSUhEUgAAAH4AAABQCAYAAADfhcHOAAAAAXNSR0IArs4c6QAAAHhlWElmTU0AKgAAAAgABAEaAAUAAAABAAAAPgEbAAUAAAABAAAARgEoAAMAAAABAAIAAIdpAAQAAAABAAAATgAAAAAAAACQAAAAAQAAAJAAAAABAAOgAQADAAAAAQABAACgAgAEAAAAAQAAAH6gAwAEAAAAAQAAAFAAAAAAjOo+ggAAAAlwSFlzAAAWJQAAFiUBSVIk8AAAEKtJREFUeAHtXXuMXkUVv3Mfu0sXKa8qyqsBRC0iD5cAf/ikCjHGFGEXUoGQ8FIsRUEtrQVXqy0hPDSQAr4CGgJsSyWQBgq+iAlBKChoawqhVYyagNCgtrv73cf4+52Zuft9+/q+3X6v7t7Zvd/MnDnnzOPM49wzc+/1vMLNyhZQrPWNv3heZ1p7mleGi3/w8Q9YBh9xhgmAyzLAiGNhQod4ZgiET87P0pKGTnABK08XOuErOdsymHyERvmelyYX37/yvHsZn8yBv/ruupfmB97QIZ6nOjIdm0KDKCkjjMvCEixPFFwLKEOsREGsElAZTWziKByX7RACIfNxeC7B+iNkjs8IxKGOhsRlgCBLVZz5uzq87F8/W9n3D0fjfOY9Y9zND71w5Jr1mx/xfe9oz/O7PcV+3YHeZjpcgJj0TQAi2yHZ1ei0DAHTmRkPtGkaHTDdDILQ8jEkoZf5hpZxduhAAsSG80PxdWRzsPkxFUEv5A9cELJUht6lMS7ZCi7TQRN0CD/+MC86yZ4DU2LaCzE+JF0SlReozEu095/Fqwee/Xc0tOiJr1+0S1DxQ9RxnULrKV+h7XzPZxi+wMb4BkfSmeYuRyNxh+P8MrwKfkyHBERg4xZrQuCqh55bmETBX1WgPuQpr5vNzdlKc3ZyPsKMj3tZnHHTHI3DoY+LEpQ8bFxoXXha/ih+OY+RulTkJ+mOxvmmbFI+aS21n1LBwoOGu3YsXvPQUa4BJxrxg2isVzS6C9gAl8wQTi0ZexwytTM/6++liBNGx7iZ9s3cI6PMIYNfplNDSxLGJQ15II4ga3Ao2BwszGr46d/47CHhsLchSzAvM3M4PwhMJ7TxfJli0fFHPCZJGPiCZmGkVwIgnPw04oQiVFEPBzR4biQKlLyIb31mIKyYIxJyXAESZniZNORvMhMeJBA5CF0ZLbHQKRV52rwYEE6kYYdFW0sn8NU8naW/7b1x4Ph11/W9PZHgt36r77Qe5t0Kd9Hq9beoMLzG6QXVytBZCm7yA/8daZrK7JRk2V/SJL1DedmOTKXKkw6bOK+CXdmyiN6bGpwyjDzddfoyjByUIyEAoETNDA6WKZYAOEliaFi45yQmahZ8STE/tsiI5LkYvoySzQgYQcvNekzydaYyX/VA6kswAg6Gz4FweJCm5yD5pxMJPujv7/dxmSEMzCa7Dum1NWTaOzAQdESdF5ZKQ6gY+n6qX1957ikLaiCdDSgbv7D64XV+oLckmA1l5LMjQPATrvF7S6v0dB5zEnUPOk7vqUq/uLeUvRnlvG/Foq1JGj/u2kgr/0TmO9GIz8t044bNN2CpOBdrfpJhUskwnXCZkxs6zCkZAHLDxMUZV6YTwDDyMLUkUAqklwmeJrWsSZj9EOaYxiSVgg66BChi6AmLH7z+/FfzzGsJZN5cyQO4UA29TEXbayGbXTj+VsyGZ7HFobuI+lBV8OghR0ad4fFxXILQQMP7DNHCfE/jfoI3Mbw1ofKBVcXzU7D0jeIXaN7gQBjAU0zLSINktjp6U4pIQP0kBH6KHqS8fWaXQFpX26qCh9hwl0KNG8IRH4KC4GV0c5QjTK2ccROmJsmwuYSGYdLmPvsO4uwu0o+oSrA3Fa5ZLbDXr/HNaqiZlk8h+Jkm0RrrUwi+xoaaaWg1CB7mVVtrMacibMyq1mdqbmK1JlfiW1gFzWhcy9nh2GwKrwktUFW5g871dpKkb0IRi/NdOqhlVM7gQTmjbxQ5qH3U/Kiwi+JGfc0ofeZOAL8SBwqcVfZEu6PW75WSEm8WC9eMFqgmeHXd53uuRUF4FW4GtUC1qV7G5gyqb1EV2wLVRry3ZsMLy3Dfvgh2twR2cPzKJI2JGrY3WuAwbyecrsVKhzgOFsiUjl9a6Lg7BEpkR6MOfFy01nGHjqsEYTDecGmIk0xdsu76vh2FdBrfAlUFj7X3vVEYnhbDLqthfVPYGeKWJbZ+GMDaTNsdBCjKnJbdMacLcLsQSIBR3lACGcUPUX1Y7VLwYzr3/dEJYt/PuolRuMa3QLWpHiUw1rVcgYPQaYHL4xCkiRPkwiadQpa0Mb7FBXyEj9vxbnylixys2bxoiNnXAjWM+NnXKLOhxoXgZ4OUx6ljDYKfiuUOqpooecjJ+i5u/FFWvsJyN45ImgOqqtVDPRuMk9Ju+DFuyKiOUVWT0skvzXCi7FmPVjuACM6gr4nCR72N926Uuz2xqRgnLyCLpU97JS/CPWLhmtICVQW//OwPX4WS8CrcDGqBqoIfwGHGnTuPqlgSnp9WA1Sn+uEVl8M8VNzWTat5p0hUVfDbo2OWZ/Oyc7Apkxgrm/bejWk65T27WOBgoUOcYTNt42Qd5nnO2XLKhlY54Kb6MFjyOOWbM/XE54Fnzvhygkdn8XmrHrzwweu9V6dYhwJ9Gi1QVfAQy/wgCE9MspIIkHlAfDIu6UvMBGTt5/pOR+sew4wKCBFa+Vw6QoJnfiRcwmG84sxdWas0MlgxhTcyo4J3e7VAIfj2kkfTSlMIvmlN3V4ZFYJvL3k0rTSF4JvW1O2VUQ1avXo5S9KnUeyEjyhR/+Yz8J5KxTxr4nx0CQmI0DQrmjtNtsQRs6xgGT3e4gERVjzyo7YvPp648vMH99urmWZeaaoKfujFR2/esmDBLcf19lJ64ig7XpwuxmXwbUGb8k9/v5zMmDJdQTD1FhhXbhVsjvxYR09nFA2u26rnIeGNikQXeR2Bd+KCTwQ8pEzIBMhMsW6E2xsI4rHs3S18NNsValb4VQXfOXfubWmSXR75u+K3sMHCMUlLnRyvwlk6WvD4dGyWvY4pHnC+82Un3sdCuD1nRwueWP1g0RMcptHqh0Nb3KDhs3hhpIe3qAWno9W3zoqWb3ElqwoeT7lGfhD6SVzqxGpsi4v1GRM/j9HJqs/1GmGTnq8IXPABRDz3QS7J5FNmuzMkCm9xKJTNJnWIoqGb1NDtlk0h+HaTSJPKUwi+SQ3dbtkUgm83iTSpPDUIni8jRGnwI+fmRvtQ7wycKC4MAkNk0hxO7lt+iBNP6O27JZtU71mfTVWtHndbT+kkoQJvzsNBS6f2bmxu1NjRhvKUjFHNXZg4vHXjEzQKFjwq9wbZ6PMkE0c46cFfxfotgRU/DW+BqoJfcfbJP0cpeBVuBrVADVP9DKptUZW8BcYVPGZf3VLTKV5Cmi8FeVGLQD1bYPypXntH9z/wzEau5nyEmS5/nRnDNLnSBIckjXQ5WEkkOTNvzLFculPaY+G4vvOxaONg5uWTt4QTAD2Aj1qLAz6swMQ8Tllak1DjL3oLXt1d9ob5GulmOpo5+1pRy3EFD0V7vyDwP0N5UOMWQWNu4KPRHIl8dx0PU2Z8PhpbtAHCgkNNHmEf9lza5gNu37LzUP6iADIGOF78zo5jOhMeoxb7L/iC3rw/0dj2QTUll+GBfLyhefn31v8eWz7IG+XnfoE4FEKK4TgiYvqW6XQGCzgO3fZFcqBD/4QbSa8MMyaZEclQkID1xwsFHCvLWhDYhsYZ30WFDxKEhj+SzLJbfHg2lJPjXaJ5mAFDy4HGtxRyHOlPsK3L3biCJ4IcjQau21SBHEVQLk0EZ2EUuvyROcNjLsNPaMekmQ5g+Fo+wJmOY2Oia16gffRI5oN+qPAj3CAEdlpGmAs3GygXlxP7HgnwqL51JsW8AdTwYmfiSWHjEGa/NgzlowHMj3EB866Gf/Y9uyyPITW8+E4AwearPuGwUSE+PQnxBwR8eyjLhZKRhfRnOcFMbElifpZXTsxE4OOXKU4ehDo3oeAdwt7mm06IUtvOUx5nQxBMgTCQhx26hbHOpBvxDe5IXEJkZHkZ/JzGIDJZ+AinnLfNt4K/wSvnb5KJO1IOGyyDSQamDDYvUyYHH+FL3uVuxgm+vHKtDhvDFsYcO0iu47S6VCb/QvANkIPoRZkehLTvxlmDzZip52KxXeSH4acyvkSoDVwh+AYIAcJO5yTq8DVLFr5Zxn7tVWsfvyUIo2uSuPU3HkazKCvdtIOYzlApTmuPQf1fgQnuLqxJqbHDT5vrXknoa3XJKKFLPW6/8qxrIfQt7VCpuo34IIq8pDS86rYrFt7gKrbkR5tuwmffeJSqy8FmgT+cBumEjwbjTmAj7vSOa3U71G3E42jWa7deNiJ0VuyOy87cAe8J3AM1rp72u22Ny2CqnLUK0pGbwjHU+PLDGFgLAHUrBGQ75muGUh+lX5Vz+A2qHN7W8d+Gdqwpl9vHh5T0qROSae+zE6Y1J0HuD+sneK1O6O0doC2v0mnvdOg6lbA6xo6Ne55vLz0Chhqlbr/6jk0fHV3NJWs33RNE4ftHw5sb139ifnVb41UQzDns0wc+s2zhkwt3egfs7t61PUw6970Ar8I8jda/Rrm+PpXi27gD+Bpmn9sbaFRetfKF6Lv8zuipr9z9yx8nWbwe3wedByscFF71gZQfRWyRkwGSeWuZfd0En/HMvQp6SirdPkfvfC2bs//+EMZ8vtu20S7M1DdiL/0c8mkbJZKznPKDS6Og61LOrfwKpvmiZqNbY2L+uM18K438B4hRt6mezOzIPhDBE1HZ+dw0aYb72jkn/w0vzP0SDNNJO037HAwc4byc6bUZ7TE6D7YJbq3/l8bqI/y8KNPrKngyDHEvr4LQizqbO/jwdq57dMk7CRX8Q+ecbjyZ0+EFQSS2BeOHCLuLcIadjzDKPJI+Ksw0d1ke/LghlDhWeY8dHljBxxKrXyxfLXgOh/WLuvB2Ga3Xh2r42HX9fflTSnWb6l3t8U3Xa2+7/JO3Lr3zNx/ECHwGu2PyZWeX3kj/m+ef8mfwP3nVwHPvwy7aGdiUPAjbkRUaBrUN8+HDypLga4o8QFAGtBuh8nCPCUsqdgBpfYeR5j1h2HFlkuB7fHvgKJw4Hv5OoP0SZgU8oWaWRlMSjEuTKaBlZbNBt5XrNmpFe7Bp2MHTSvv/9OP0kftW9JZbEKW0coMN5YjtI9OR7JGzL2OL1eyyotKShtraPV1uf463LYsDFfr7l52RzyJL79q0HMN/Ndd5t//MKY9Xnh/DOV+OIZO3rIu2ZnLrmyYX37/yvHv3oI3rSrrsJ78+Iejq/uPwEJ7sRmFdvZiJzAOsJ8PWR4D/kkqfcLqoa4738u4Xux5butR9Xljgjf7JhVSPjNCL1Ffv/NWhjheeizzV1taBZowf67QubUfx75scUhdeU2ncuk/1OsievvruJ+/EiD4TQv84FZzCtV8L1F3wvvKPwPbjmgTTe9omW5Dt1+ytL1HdBc+1C3Z7WcNbX72iBBO1QNPXlokKUsCb2wKF4Jvb3m2TW92n+rapWR0Lsmxg81x/cPBdnjfsDeOmC6d4M9/XR1RaCKaZIW5ZD4i6j7niB48OwayLG6NO3OKFg2u/fObfp8mxJrJixNfQTP7u3Yv9jo5tnr/Pto6urm14F9QrsOQ9XBoerIF6cpQYPKIgeikIO16Ourq3hZ3BtjSON/T39zdUNsWIn1wuJhWf08jsXYozYtFM454ZroXFZDg8gOkMOuIr1fCdrYb2qskqW6S1tgUKwbe2/VuWezHV19D0mNRTTMd8grfiFIWxtpvHlIQNzxbSBg9P7PcuwETCnHOEBOaPZCFR4MJjz3Z+XD6T+IXgJ2kclzSUpes7suh3/FBWuct7gYAr0xwe5Z3jOWAOoKRNxPUL+qnyB6HclW3HOcL6+f8H9bfWuBKqqcYAAAAASUVORK5CYII=;" vertex="1" parent="1">
          <mxGeometry x="728" y="554" width="63" height="40" as="geometry" />
        </mxCell>
        <mxCell id="xqDeTB8OZsrvRhNrIGSB-13" value="202.101.1.1" style="text;html=1;strokeColor=none;fillColor=none;align=center;verticalAlign=middle;whiteSpace=wrap;rounded=0;dashed=1;fontFamily=Helvetica;fontSize=11;fontColor=default;" vertex="1" parent="1">
          <mxGeometry x="387.5" y="282.36" width="60" height="30" as="geometry" />
        </mxCell>
        <mxCell id="xqDeTB8OZsrvRhNrIGSB-14" value="192.168.1.1" style="text;html=1;strokeColor=none;fillColor=none;align=center;verticalAlign=middle;whiteSpace=wrap;rounded=0;dashed=1;fontFamily=Helvetica;fontSize=11;fontColor=default;" vertex="1" parent="1">
          <mxGeometry x="555.4" y="454" width="60" height="30" as="geometry" />
        </mxCell>
      </root>
    </mxGraphModel>
  </diagram>
</mxfile>
